<?xml version="1.0" encoding="utf-8"?>
<!-- Generator: Adobe Illustrator 26.0.1, SVG Export Plug-In . SVG Version: 6.00 Build 0)  -->
<svg version="1.1" id="Livello_1" xmlns="http://www.w3.org/2000/svg" xmlns:xlink="http://www.w3.org/1999/xlink" x="0px" y="0px"
	 viewBox="0 0 50.99 30" enable-background="new 0 0 50.99 30" xml:space="preserve">
<g id="Livello_2_00000016789818620867873050000015638344338424159670_">
	<g id="Livello_1-2">
		<g id="Livello_1-2-2">
			<rect x="17.9" y="12.58" fill="#FFFFFF" width="3.61" height="10.22"/>
			<rect x="22.51" y="7.62" fill="#FFFFFF" width="3.61" height="15.18"/>
			<path fill="#FFFFFF" d="M31.95,20.89c-0.81,0-1.51-0.36-1.51-1.26c0-0.89,0.68-1.21,1.49-1.4c0.81-0.19,1.72-0.28,2.23-0.59
				c0.09,2.27-0.49,3.25-2.19,3.25 M37.67,15.15c0-3.13-2.53-3.7-5.14-3.7c-1.22-0.04-2.42,0.22-3.51,0.77
				c-1.08,0.59-1.75,1.72-1.76,2.95h3.38c0.17-0.93,0.81-1.38,1.8-1.38c0.75,0,1.76,0.32,1.76,1.15c0,0.68-0.34,0.88-0.96,1.02
				c-2.51,0.51-6.41,0.23-6.41,3.82c0,2.28,1.65,3.34,3.76,3.34c1.35,0.06,2.66-0.43,3.63-1.36c0.03,0.35,0.1,0.7,0.21,1.04h3.64
				c-0.44-0.88-0.44-1.89-0.44-2.83L37.67,15.15z"/>
			<path fill="#FFFFFF" d="M46.03,16.21c-1.66-0.36-4.08-0.55-4.08-1.59c0-0.76,0.96-0.83,1.55-0.83c0.4-0.02,0.8,0.08,1.15,0.28
				c0.32,0.21,0.5,0.58,0.47,0.96h3.34c-0.13-2.87-2.66-3.57-5.08-3.57c-2.17,0-5.03,0.72-5.03,3.38c0,2.97,2.85,3.04,5.12,3.61
				c0.64,0.15,1.76,0.32,1.76,1.17s-0.99,1.17-1.69,1.17c-0.47,0.01-0.93-0.12-1.32-0.38c-0.39-0.28-0.62-0.74-0.61-1.23h-3.45
				c0.11,3.07,2.78,3.95,5.4,3.95c2.49,0,5.29-0.98,5.29-3.95c0-0.91-0.58-2.53-2.8-2.98"/>
			<path fill="#FFFFFF" d="M19.67,7.55c-1.15,0-2.08,0.93-2.08,2.08c0,1.15,0.93,2.08,2.08,2.08c1.15,0,2.08-0.93,2.08-2.08l0,0
				C21.74,8.49,20.81,7.56,19.67,7.55"/>
			<path fill="#FFFFFF" d="M48.67,10.36h-0.33V9.69h0.44c0.22,0,0.44,0.04,0.44,0.32S48.96,10.36,48.67,10.36 M49.55,10.03
				c0-0.4-0.23-0.6-0.73-0.6h-0.81v2.09h0.33v-0.9h0.35l0.57,0.9h0.35l-0.6-0.93c0.29,0.01,0.54-0.22,0.55-0.51c0,0,0,0,0,0
				L49.55,10.03"/>
			<path fill="#FFFFFF" d="M48.7,12c-0.81,0-1.47-0.65-1.47-1.46c0,0,0-0.01,0-0.01v-0.07c-0.04-0.81,0.58-1.51,1.39-1.55
				c0.81-0.04,1.51,0.58,1.55,1.39c0,0.05,0,0.11,0,0.16c0.03,0.81-0.6,1.5-1.42,1.53c0,0,0,0,0,0H48.7 M50.5,10.47
				c0-0.99-0.8-1.8-1.8-1.8c-0.99,0-1.8,0.8-1.8,1.8c0,0.99,0.8,1.8,1.8,1.8l0,0c0.97,0.02,1.77-0.75,1.8-1.72c0,0,0,0,0,0
				L50.5,10.47"/>
			<path fill="#FFFFFF" d="M15.5,14c-0.1,0.01-0.19-0.03-0.26-0.09c-0.44-0.44-0.88-0.88-1.29-1.32l-0.61-0.62
				c-0.2-0.2-0.41-0.41-0.61-0.62l-0.62-0.61L10.9,9.51c-0.44-0.44-0.84-0.84-1.25-1.26C9.59,8.18,9.56,8.09,9.56,8V7.9
				c0.05-0.17,0.19-0.29,0.36-0.32h0.1c0.08,0,0.16,0.03,0.22,0.09c0.88,0.83,1.67,1.69,2.5,2.52l0.62,0.64l1.22,1.24
				c0.42,0.44,0.85,0.84,1.25,1.27c0.07,0.07,0.1,0.16,0.09,0.25c-0.01,0.23-0.2,0.42-0.44,0.42 M13.6,13.46h-0.12
				c-0.71-0.24-1.42-0.47-2.12-0.73c-0.15-0.05-0.47-0.08-0.55-0.33c-0.22-0.62-0.4-1.26-0.59-1.88c-0.06-0.16-0.11-0.32-0.14-0.49
				V9.95c0.05-0.17,0.19-0.29,0.36-0.32h0.1c0.17,0.03,0.32,0.16,0.37,0.32c0.19,0.67,0.41,1.32,0.62,1.98
				c0.73,0.25,1.47,0.5,2.19,0.75c0.22,0.11,0.3,0.37,0.2,0.59c-0.07,0.14-0.2,0.23-0.35,0.24 M13.42,20.23
				c-0.05,0.17-0.19,0.29-0.36,0.32H4.04c-0.19-0.03-0.34-0.18-0.37-0.37v-9.8c0.03-0.19,0.18-0.34,0.37-0.37h0.1
				c0.17,0.02,0.31,0.13,0.36,0.29l0.02,0.07v9.29h8.56c0.17,0.03,0.31,0.16,0.36,0.32v0.09L13.42,20.23z M5.57,11.01v-0.16
				c0.05-0.17,0.19-0.29,0.36-0.32h0.1c0.22,0.03,0.39,0.22,0.39,0.44l-0.44,7.11l6.54-0.41c0.24,0,0.44,0.2,0.44,0.44
				s-0.2,0.44-0.44,0.44h-0.04l-6.94,0.44c-0.24,0-0.44-0.2-0.44-0.44L5.57,11.01z M7.38,11.99c0.03-0.14,0.05-0.29,0.07-0.44v-0.17
				c0.05-0.17,0.19-0.29,0.36-0.32h0.14c0.22,0.03,0.38,0.22,0.38,0.44l-0.88,4.96l4.55-0.8c0.23,0,0.43,0.18,0.44,0.42v0.09
				c-0.03,0.14-0.13,0.25-0.27,0.3c-0.66,0.13-1.32,0.23-2,0.35l-0.52,0.09l-0.74,0.13L8.02,17.2l-1.06,0.18
				c-0.23,0-0.43-0.18-0.44-0.42c0,0,0.58-3.31,0.88-4.97 M9.28,12.14c0.08-0.18,0.13-0.44,0.39-0.51h0.17
				c0.22,0.03,0.39,0.22,0.39,0.44c0,0.06-0.01,0.11-0.03,0.16c-0.34,0.8-1.03,2.37-1.03,2.4v0.04c0.7-0.29,1.41-0.58,2.1-0.88
				l0.14-0.07h0.12c0.24,0,0.44,0.2,0.43,0.45c0,0.17-0.1,0.32-0.26,0.39c-0.69,0.3-1.41,0.59-2.11,0.88l-0.56,0.23L8.7,15.8
				c-0.1,0.05-0.21,0.08-0.33,0.1c-0.24,0-0.44-0.2-0.44-0.44c0-0.06,0.02-0.12,0.04-0.18c0.27-0.63,0.54-1.27,0.81-1.89
				c0.17-0.39,0.32-0.8,0.5-1.19 M16.45,12.93c-0.13-0.49-0.3-0.97-0.52-1.44c-0.41-0.86-0.96-1.64-1.64-2.3
				c-1.08-1.08-2.46-1.82-3.95-2.13C10.05,7,9.76,6.95,9.46,6.93L9,6.88H8.21L7.69,6.93c-0.91,0.1-1.8,0.35-2.63,0.75
				C4.25,8.08,3.51,8.61,2.87,9.24c-1.02,1.03-1.75,2.31-2.12,3.71c-0.09,0.35-0.15,0.7-0.19,1.06c0,0.18-0.06,0.54-0.06,0.56v0.83
				c0,0.02,0.02,0.18,0.03,0.25c0.04,0.6,0.15,1.18,0.33,1.76c0.12,0.38,0.26,0.75,0.44,1.1c0.4,0.82,0.93,1.57,1.57,2.22
				c1.02,1.03,2.3,1.76,3.7,2.12c0.35,0.09,0.7,0.16,1.06,0.2l0.55,0.06h0.83c0,0,0.38-0.04,0.56-0.06c0.32-0.04,0.65-0.1,0.96-0.18
				c1.26-0.3,2.43-0.9,3.4-1.76c0.12-0.11,0.25-0.21,0.36-0.32c1.09-1.07,1.85-2.43,2.19-3.92c0.07-0.28,0.12-0.56,0.15-0.84
				c0-0.18,0.06-0.51,0.06-0.54v-1.01c-0.03-0.38-0.08-0.76-0.15-1.13c-0.03-0.14-0.07-0.29-0.1-0.44"/>
		</g>
	</g>
</g>
</svg>
