<?xml version="1.0" encoding="utf-8"?>
<!-- Generator: Adobe Illustrator 26.0.1, SVG Export Plug-In . SVG Version: 6.00 Build 0)  -->
<svg version="1.1" id="Livello_1" xmlns="http://www.w3.org/2000/svg" xmlns:xlink="http://www.w3.org/1999/xlink" x="0px" y="0px"
	 viewBox="0 0 30 30" enable-background="new 0 0 30 30" xml:space="preserve">
<path id="Path_341" fill="#0099C2" d="M17.8,15.33c0-1.55-1.26-2.81-2.81-2.81c-1.55,0-2.81,1.26-2.81,2.81
	c0,1.55,1.26,2.81,2.81,2.81C16.54,18.14,17.8,16.88,17.8,15.33z M14.11,13.11c-0.16,0.25-0.27,0.52-0.35,0.8h-0.68
	C13.34,13.56,13.69,13.28,14.11,13.11z M12.82,14.34h0.83c-0.05,0.26-0.08,0.52-0.08,0.78h-0.95
	C12.64,14.85,12.71,14.58,12.82,14.34L12.82,14.34z M12.82,16.32c-0.11-0.25-0.18-0.51-0.21-0.78h0.95
	c0.01,0.26,0.04,0.52,0.08,0.78H12.82z M13.07,16.74h0.68c0.08,0.28,0.2,0.55,0.35,0.8C13.69,17.38,13.34,17.1,13.07,16.74
	L13.07,16.74z M14.78,17.65c-0.22-0.13-0.44-0.45-0.59-0.91h0.59V17.65z M14.78,16.32h-0.7c-0.05-0.26-0.08-0.52-0.09-0.78h0.79
	V16.32z M14.78,15.12h-0.79c0.01-0.26,0.04-0.52,0.09-0.78h0.7V15.12z M14.78,13.91h-0.59c0.15-0.46,0.37-0.78,0.59-0.91V13.91z
	 M17.16,16.32h-0.83c0.05-0.26,0.08-0.52,0.08-0.78h0.95C17.34,15.81,17.27,16.07,17.16,16.32z M17.16,14.34
	c0.11,0.25,0.18,0.51,0.21,0.78h-0.95c-0.01-0.26-0.04-0.52-0.08-0.78H17.16z M16.91,13.91h-0.68c-0.08-0.28-0.2-0.55-0.35-0.8
	C16.29,13.28,16.65,13.56,16.91,13.91L16.91,13.91z M15.2,13.01c0.22,0.13,0.44,0.45,0.59,0.91H15.2V13.01z M15.2,14.34h0.7
	c0.05,0.26,0.08,0.52,0.09,0.78H15.2L15.2,14.34z M15.2,15.54h0.79c-0.01,0.26-0.04,0.52-0.09,0.78h-0.7V15.54z M15.2,17.65v-0.91
	h0.59C15.64,17.2,15.43,17.52,15.2,17.65L15.2,17.65z M15.88,17.54c0.16-0.25,0.27-0.52,0.35-0.8h0.68
	C16.65,17.1,16.29,17.38,15.88,17.54L15.88,17.54z M22.28,8.62c-0.04-0.02-0.07-0.07-0.05-0.11c0.01-0.01,0.02-0.03,0.03-0.04
	c0.43-0.33,0.51-0.95,0.18-1.38c-0.33-0.43-0.95-0.51-1.38-0.18c-0.43,0.33-0.51,0.95-0.18,1.38c0.05,0.07,0.11,0.13,0.18,0.18
	c0.04,0.03,0.04,0.08,0.01,0.12c-0.01,0.01-0.02,0.02-0.04,0.03c-0.61,0.22-1.02,0.79-1.02,1.44v0.7c0,0.16,0.13,0.29,0.29,0.29
	h2.71c0.16,0,0.29-0.13,0.29-0.29v-0.7C23.29,9.41,22.88,8.84,22.28,8.62z M6.99,11.05H9.7c0.16,0,0.29-0.13,0.29-0.29l0,0v-0.7
	c0-0.65-0.41-1.22-1.02-1.44C8.92,8.6,8.9,8.55,8.92,8.51c0.01-0.01,0.02-0.03,0.03-0.04c0.43-0.33,0.51-0.95,0.18-1.38
	S8.18,6.58,7.75,6.91S7.23,7.86,7.56,8.29c0.05,0.07,0.11,0.13,0.18,0.18C7.78,8.5,7.79,8.55,7.76,8.59
	C7.75,8.6,7.74,8.61,7.72,8.62C7.11,8.84,6.71,9.41,6.7,10.06v0.7C6.7,10.92,6.83,11.05,6.99,11.05
	C6.99,11.05,6.99,11.05,6.99,11.05z M22.28,20.87c-0.04-0.02-0.07-0.07-0.05-0.11c0.01-0.01,0.02-0.03,0.03-0.04
	c0.43-0.33,0.51-0.95,0.18-1.38c-0.33-0.43-0.95-0.51-1.38-0.18c-0.43,0.33-0.51,0.95-0.18,1.38c0.05,0.07,0.11,0.13,0.18,0.18
	c0.04,0.03,0.04,0.08,0.01,0.12c-0.01,0.01-0.02,0.02-0.04,0.03c-0.62,0.25-1.02,0.85-1.02,1.52v0.62c0,0.16,0.13,0.29,0.29,0.29
	h2.71c0.16,0,0.29-0.13,0.29-0.29v-0.62C23.3,21.72,22.89,21.12,22.28,20.87L22.28,20.87z M8.97,20.87
	c-0.04-0.02-0.07-0.07-0.05-0.11c0.01-0.01,0.02-0.03,0.03-0.04c0.43-0.33,0.51-0.95,0.18-1.38c-0.33-0.43-0.95-0.51-1.38-0.18
	s-0.51,0.95-0.18,1.38c0.05,0.07,0.11,0.13,0.18,0.18c0.04,0.03,0.04,0.08,0.01,0.12c-0.01,0.01-0.02,0.02-0.04,0.03
	c-0.62,0.25-1.02,0.85-1.02,1.52v0.62c0,0.16,0.13,0.29,0.29,0.29c0,0,0,0,0,0H9.7c0.16,0,0.29-0.13,0.29-0.29v-0.62
	C9.99,21.72,9.59,21.12,8.97,20.87L8.97,20.87z M12.32,13.17l-0.33-0.27c-0.15,0.19-0.28,0.39-0.4,0.6l0.37,0.2
	C12.06,13.51,12.18,13.33,12.32,13.17z M11.76,14.15l-0.4-0.14c-0.08,0.23-0.14,0.46-0.18,0.69l0.42,0.07
	C11.63,14.56,11.68,14.35,11.76,14.15z M13.16,12.41l-0.22-0.36c-0.2,0.13-0.39,0.27-0.57,0.44l0.29,0.31
	C12.81,12.66,12.98,12.53,13.16,12.41L13.16,12.41z M18.42,13.55c-0.11-0.21-0.24-0.41-0.39-0.6L17.7,13.2
	c0.13,0.17,0.25,0.35,0.35,0.54L18.42,13.55z M17.66,12.53c-0.17-0.17-0.36-0.32-0.56-0.45l-0.23,0.35c0.18,0.12,0.35,0.25,0.5,0.4
	L17.66,12.53z M13.6,12.18c0.18-0.08,0.37-0.14,0.56-0.19c0.46,0.43,1.18,0.43,1.63-0.01v0c0.22,0.06,0.43,0.13,0.64,0.22l0.18-0.38
	c-0.18-0.08-0.37-0.15-0.56-0.2c0.17-0.38,0.13-0.83-0.12-1.18l0.34-0.45l-0.34-0.25l-0.31,0.41c-0.54-0.36-1.28-0.22-1.64,0.33
	c-0.23,0.34-0.26,0.78-0.09,1.16c-0.16,0.05-0.31,0.1-0.47,0.17L13.6,12.18z M14.97,10.36c0.14,0,0.28,0.04,0.4,0.11l-0.46,0.61
	l-0.35-0.37l-0.3,0.29l0.53,0.55c0.04,0.04,0.09,0.06,0.15,0.06h0.01c0.06,0,0.12-0.03,0.16-0.08l0.56-0.74
	c0.18,0.38,0.02,0.83-0.36,1.01c-0.38,0.18-0.83,0.02-1.01-0.36c-0.18-0.38-0.02-0.83,0.36-1.01
	C14.75,10.39,14.86,10.36,14.97,10.36L14.97,10.36z M18.4,14.82l0.42-0.06c-0.04-0.24-0.09-0.47-0.17-0.7l-0.4,0.14
	C18.31,14.4,18.36,14.61,18.4,14.82z M13.97,19.06c0.23,0.06,0.47,0.1,0.71,0.12l0.03-0.42c-0.21-0.02-0.42-0.05-0.63-0.11
	L13.97,19.06z M17.27,17.91l0.28,0.32c0.18-0.16,0.34-0.33,0.49-0.52l-0.33-0.26C17.58,17.61,17.43,17.77,17.27,17.91z M12.24,17.39
	l-0.34,0.25c0.14,0.19,0.3,0.37,0.48,0.53l0.29-0.31C12.51,17.72,12.36,17.56,12.24,17.39z M12.82,18.52
	c0.2,0.14,0.41,0.25,0.63,0.35l0.17-0.39c-0.2-0.09-0.38-0.19-0.56-0.31L12.82,18.52z M17.99,17.03l0.37,0.21
	c0.12-0.21,0.22-0.43,0.3-0.65l-0.4-0.14C18.18,16.65,18.09,16.84,17.99,17.03z M18.43,15.31v0.02c0,0.21-0.02,0.43-0.06,0.64
	l0.42,0.08c0.04-0.24,0.07-0.48,0.07-0.72v-0.01L18.43,15.31z M15.21,18.76l0.03,0.42c0.24-0.01,0.48-0.05,0.71-0.11l-0.1-0.41
	C15.63,18.72,15.42,18.75,15.21,18.76z M11.55,15.33c0-0.02,0-0.04,0-0.06l-0.42-0.01c0,0.02,0,0.05,0,0.07
	c0,0.22,0.02,0.43,0.05,0.64l0.42-0.07C11.57,15.71,11.55,15.52,11.55,15.33L11.55,15.33z M11.72,16.38l-0.4,0.13
	c0.07,0.23,0.17,0.45,0.28,0.66l0.37-0.2C11.87,16.78,11.78,16.59,11.72,16.38L11.72,16.38z M16.31,18.51l0.16,0.39
	c0.22-0.09,0.43-0.2,0.63-0.34l-0.23-0.35C16.7,18.33,16.51,18.43,16.31,18.51z M9.64,12.89c-0.05-0.06-0.15-0.06-0.21-0.01
	c-0.03,0.03-0.05,0.07-0.05,0.11v0.45H8.56v-1.78H8.14v1.99c0,0.12,0.09,0.21,0.21,0.21h1.04v0.43c0,0.08,0.06,0.15,0.14,0.15
	c0.04,0,0.08-0.02,0.11-0.05l0.6-0.66c0.05-0.06,0.05-0.14,0-0.2L9.64,12.89z M9.64,15.54c-0.05-0.06-0.15-0.06-0.21-0.01
	c-0.03,0.03-0.05,0.07-0.05,0.11v0.42H8.35c-0.12,0-0.21,0.09-0.21,0.21l0,0v2.07h0.42v-1.86h0.83v0.46c0,0.08,0.06,0.15,0.14,0.15
	c0.04,0,0.08-0.02,0.11-0.05l0.6-0.66c0.05-0.06,0.05-0.14,0-0.2L9.64,15.54z M20.38,14.39c0.05,0.06,0.15,0.06,0.21,0.01
	c0.03-0.03,0.05-0.07,0.05-0.11v-0.43h1.04c0.12,0,0.21-0.09,0.21-0.21c0,0,0,0,0,0v-1.99h-0.42v1.78h-0.83v-0.45
	c0-0.08-0.07-0.15-0.15-0.15c-0.04,0-0.08,0.02-0.11,0.05l-0.6,0.64c-0.05,0.06-0.05,0.14,0,0.2L20.38,14.39z M20.54,17.08
	c0.06-0.02,0.09-0.08,0.09-0.14v-0.46h0.83v1.86h0.42v-2.07c0-0.12-0.09-0.21-0.21-0.21l0,0h-1.04v-0.42c0-0.08-0.06-0.15-0.15-0.15
	c-0.04,0-0.08,0.02-0.11,0.05l-0.6,0.64c-0.05,0.06-0.05,0.14,0,0.2l0.6,0.66C20.42,17.09,20.48,17.1,20.54,17.08L20.54,17.08z"/>
</svg>
