<?xml version="1.0" encoding="utf-8"?>
<!-- Generator: Adobe Illustrator 26.0.1, SVG Export Plug-In . SVG Version: 6.00 Build 0)  -->
<svg version="1.1" id="Livello_1" xmlns="http://www.w3.org/2000/svg" xmlns:xlink="http://www.w3.org/1999/xlink" x="0px" y="0px"
	 viewBox="0 0 30 30" enable-background="new 0 0 30 30" xml:space="preserve">
<g id="Layer_2_00000088854559035508755350000016963694325920365479_" transform="translate(0.207 0.208)">
	<g id="pantone" transform="translate(-0.207 -0.208)">
		<rect id="Rectangle_227" x="3.85" y="3.85" fill="#0099C2" fill-opacity="0" width="22.3" height="22.3"/>
		<path id="Path_426" fill="#0099C2" d="M22.39,16.09h-2.5l-1.72,1.85l-3.29,3.53l-1.3,1.4l-0.43,0.44h9.24
			c0.51,0,0.92-0.41,0.92-0.92v-5.38C23.32,16.5,22.9,16.09,22.39,16.09L22.39,16.09z M20.72,12.5l-3.83-3.57
			c-0.17-0.17-0.41-0.26-0.66-0.24c-0.25,0.01-0.48,0.11-0.65,0.29L14.83,9.8v9.9c-0.01,0.18-0.03,0.35-0.06,0.53l5.99-6.42
			C21.11,13.43,21.09,12.85,20.72,12.5L20.72,12.5z M13.91,7.6c0-0.51-0.41-0.92-0.92-0.92c0,0,0,0,0,0H7.6
			c-0.51,0-0.92,0.41-0.92,0.92l0,0v12.1c0,2,1.62,3.61,3.61,3.61c2,0,3.61-1.62,3.61-3.61V7.6z M12.06,19.7
			c0,0.98-0.79,1.77-1.77,1.77c-0.98,0-1.77-0.79-1.77-1.77c0,0,0,0,0,0v-1.93h3.53V19.7z M12.06,15.92H8.53v-2.77h3.53V15.92z
			 M12.06,11.3H8.53V8.53h3.53V11.3z"/>
	</g>
</g>
</svg>
