<?xml version="1.0" encoding="utf-8"?>
<!-- Generator: Adobe Illustrator 26.0.1, SVG Export Plug-In . SVG Version: 6.00 Build 0)  -->
<svg version="1.1" id="Livello_1" xmlns="http://www.w3.org/2000/svg" xmlns:xlink="http://www.w3.org/1999/xlink" x="0px" y="0px"
	 viewBox="0 0 30 30" enable-background="new 0 0 30 30" xml:space="preserve">
<path id="Path_365" fill="#0099C2" d="M19.85,14.53L20,17c0.02,0.36-0.19,0.69-0.64,1c-0.56,0.35-1.18,0.6-1.83,0.73
	C16.69,18.91,15.85,19,15,19c-0.85,0.01-1.69-0.08-2.52-0.27c-0.65-0.13-1.27-0.38-1.83-0.73c-0.45-0.31-0.66-0.64-0.64-1l0.14-2.47
	l4.48,1.41c0.24,0.07,0.5,0.07,0.75,0L19.85,14.53z M23.99,12c0.01,0.11-0.07,0.21-0.17,0.24l-8.74,2.75c-0.05,0.01-0.1,0.01-0.16,0
	l-5.09-1.61c-0.26,0.23-0.45,0.53-0.55,0.87c-0.15,0.45-0.24,0.92-0.27,1.39c0.31,0.16,0.51,0.5,0.49,0.85
	c0.01,0.34-0.16,0.66-0.45,0.84l0.45,3.38c0.01,0.14-0.09,0.26-0.23,0.28c-0.01,0-0.02,0-0.02,0h-1.5c-0.14,0-0.25-0.12-0.25-0.26
	c0-0.01,0-0.02,0-0.02l0.45-3.38c-0.46-0.3-0.59-0.92-0.29-1.38c0.09-0.13,0.21-0.25,0.35-0.33c0.06-1.08,0.31-1.93,0.76-2.58
	l-2.6-0.81c-0.13-0.05-0.2-0.19-0.16-0.33c0.03-0.07,0.08-0.13,0.16-0.16l8.74-2.75c0.05-0.01,0.1-0.01,0.16,0l8.74,2.75
	C23.93,11.79,24,11.89,23.99,12z"/>
</svg>
