<?xml version="1.0" encoding="utf-8"?>
<!-- Generator: Adobe Illustrator 26.0.1, SVG Export Plug-In . SVG Version: 6.00 Build 0)  -->
<svg version="1.1" id="Livello_1" xmlns="http://www.w3.org/2000/svg" xmlns:xlink="http://www.w3.org/1999/xlink" x="0px" y="0px"
	 viewBox="0 0 30 30" enable-background="new 0 0 30 30" xml:space="preserve">
<rect x="7.11" y="5.99" fill="#0099C2" width="15.77" height="18.02"/>
<g id="layer1" transform="translate(0,-1036.3622)">
	<path id="rect5697" fill="#0C0D0D" d="M8.24,1043.48h13.52v15.77H8.24V1043.48z M9.37,1044.6v0.56v3.94h4.51v-4.51H9.37z
		 M15,1044.6v1.13h5.63v-1.13H15z M15,1046.86v1.13h5.63v-1.13H15z M9.37,1050.24v1.13h11.27v-1.13H9.37z M9.37,1052.49v1.13H15
		v-1.13H9.37z M18.38,1053.62c-1.24,0-2.25,1.02-2.25,2.25c0,1.24,1.02,2.25,2.25,2.25c1.24,0,2.25-1.02,2.25-2.25
		C20.63,1054.63,19.62,1053.62,18.38,1053.62z M9.37,1054.74v1.13H15v-1.13H9.37z M9.37,1056.99v1.13H15v-1.13H9.37z"/>
</g>
</svg>
