<?xml version="1.0" encoding="utf-8"?>
<!-- Generator: Adobe Illustrator 26.0.1, SVG Export Plug-In . SVG Version: 6.00 Build 0)  -->
<svg version="1.1" id="Livello_1" xmlns="http://www.w3.org/2000/svg" xmlns:xlink="http://www.w3.org/1999/xlink" x="0px" y="0px"
	 viewBox="0 0 30 30" enable-background="new 0 0 30 30" xml:space="preserve">
<g id="Group_253" transform="translate(-0.522 -0.85)">
	<g id="A_B_Comparison" transform="translate(-0.478 -0.163)">
		<path id="Path_422" fill="#0099C2" d="M14.17,20.38v-8.73c0-0.46-0.29-0.87-0.73-1.03v0.66c0,0.8-0.65,1.45-1.45,1.45H9.81
			c-0.8,0-1.45-0.65-1.45-1.45v-0.66c-0.43,0.15-0.72,0.57-0.73,1.03v8.73c0,0.6,0.49,1.09,1.09,1.09c0,0,0,0,0,0h4.35
			C13.68,21.47,14.17,20.98,14.17,20.38C14.17,20.38,14.17,20.38,14.17,20.38z M9.83,16.26c0.76-2.3,0.71-2.43,1.07-2.43
			s0.31,0.14,1.07,2.43c0.07,0.19-0.03,0.4-0.22,0.46s-0.4-0.03-0.46-0.22c0,0,0-0.01,0-0.01l-0.02-0.12c-0.8,0-0.68-0.04-0.73,0.12
			c-0.06,0.2-0.27,0.31-0.47,0.24C9.87,16.67,9.77,16.47,9.83,16.26C9.83,16.27,9.83,16.26,9.83,16.26z M12.71,20.38H9.09
			C8.89,20.37,8.73,20.2,8.73,20c0.01-0.19,0.16-0.35,0.35-0.35h3.63c0.2,0.01,0.36,0.17,0.35,0.38
			C13.06,20.22,12.91,20.37,12.71,20.38z"/>
		<path id="Path_423" fill="#0099C2" d="M10.91,15.34l-0.1,0.3h0.2L10.91,15.34z"/>
		<path id="Path_424" fill="#0099C2" d="M9.81,12.01H12c0.4,0,0.73-0.33,0.73-0.73l0,0v-0.73H9.09v0.73
			C9.09,11.69,9.41,12.01,9.81,12.01z M23.63,10.62v0.66c0,0.8-0.65,1.45-1.45,1.45l0,0h-2.18c-0.8,0-1.45-0.65-1.45-1.45l0,0v-0.66
			c-0.43,0.15-0.73,0.56-0.73,1.03v8.73c0,0.6,0.49,1.09,1.09,1.09h4.36c0.6,0,1.09-0.49,1.09-1.09v-8.73
			C24.35,11.19,24.06,10.78,23.63,10.62z M19.99,14.19c0-0.2,0.16-0.36,0.36-0.36h0.91c0.5,0,0.91,0.41,0.91,0.91
			c0,0.2-0.06,0.39-0.18,0.54c0.3,0.4,0.22,0.97-0.18,1.27c-0.16,0.12-0.35,0.18-0.54,0.18h-0.91c-0.2,0-0.36-0.16-0.36-0.36l0,0
			L19.99,14.19z M22.9,20.38h-3.64c-0.2-0.01-0.36-0.17-0.35-0.38c0.01-0.19,0.16-0.35,0.35-0.35h3.64c0.2,0.01,0.36,0.17,0.35,0.38
			C23.25,20.22,23.09,20.37,22.9,20.38L22.9,20.38z"/>
		<path id="Path_425" fill="#0099C2" d="M21.45,15.83c0-0.23-0.22-0.18-0.73-0.18v0.36C21.27,16.01,21.45,16.06,21.45,15.83z
			 M21.45,14.74c0-0.23-0.22-0.18-0.73-0.18v0.36C21.27,14.92,21.45,14.97,21.45,14.74z M19.27,11.29c0,0.4,0.32,0.73,0.73,0.73
			h2.18c0.4,0,0.73-0.33,0.73-0.73v-0.73h-3.63V11.29z M20.51,22.25c-2.71,1.85-6.29,1.85-9,0c-0.17-0.11-0.39-0.07-0.5,0.1
			c-0.11,0.17-0.07,0.39,0.1,0.5l0,0c2.95,2.01,6.84,2.01,9.8,0c0.15-0.13,0.17-0.36,0.04-0.51C20.83,22.22,20.65,22.19,20.51,22.25
			L20.51,22.25z M11.51,9.77c2.71-1.85,6.29-1.85,9,0c0.17,0.11,0.39,0.07,0.5-0.1c0.11-0.17,0.07-0.39-0.1-0.5
			c-2.95-2.01-6.84-2.01-9.8,0c-0.15,0.13-0.17,0.36-0.04,0.51C11.19,9.8,11.36,9.84,11.51,9.77L11.51,9.77z"/>
	</g>
</g>
</svg>
