<?xml version="1.0" encoding="utf-8"?>
<!-- Generator: Adobe Illustrator 26.0.1, SVG Export Plug-In . SVG Version: 6.00 Build 0)  -->
<svg version="1.1" id="Livello_1" xmlns="http://www.w3.org/2000/svg" xmlns:xlink="http://www.w3.org/1999/xlink" x="0px" y="0px"
	 viewBox="0 0 30 30" enable-background="new 0 0 30 30" xml:space="preserve">
<g id="Group_255" transform="translate(-11 -11)">
	<path id="Rectangle_215" fill="#0099C2" d="M21.17,19.67h0.84c0.6,0,1.08,0.49,1.08,1.08l0,0c0,0.6-0.49,1.08-1.08,1.08h-0.84
		c-0.6,0-1.08-0.49-1.08-1.08l0,0C20.08,20.15,20.57,19.67,21.17,19.67z"/>
	<path id="Rectangle_216" fill="#0099C2" d="M21.17,22.16h3.68c0.6,0,1.08,0.49,1.08,1.08l0,0c0,0.6-0.49,1.08-1.08,1.08h-3.68
		c-0.6,0-1.08-0.49-1.08-1.08l0,0C20.08,22.64,20.57,22.16,21.17,22.16z"/>
	<path id="Rectangle_217" fill="#0099C2" d="M21.17,24.63h6.63c0.6,0,1.08,0.49,1.08,1.08l0,0c0,0.6-0.49,1.08-1.08,1.08h-6.63
		c-0.6,0-1.08-0.49-1.08-1.08l0,0C20.08,25.12,20.57,24.63,21.17,24.63z"/>
	<path id="Rectangle_218" fill="#0099C2" d="M21.17,27.11h9.58c0.6,0,1.08,0.49,1.08,1.08l0,0c0,0.6-0.49,1.08-1.08,1.08h-9.58
		c-0.6,0-1.08-0.49-1.08-1.08l0,0C20.08,27.59,20.57,27.11,21.17,27.11z"/>
	<path id="Rectangle_219" fill="#0099C2" d="M21.17,29.58h11.52c0.6,0,1.08,0.49,1.08,1.08l0,0c0,0.6-0.49,1.08-1.08,1.08H21.17
		c-0.6,0-1.08-0.49-1.08-1.08l0,0C20.08,30.07,20.57,29.58,21.17,29.58z"/>
	<path id="Path_361" fill="#0099C2" d="M33.86,33.38H18.61V18.13c-0.01-0.26-0.22-0.47-0.49-0.47c-0.26,0.01-0.46,0.21-0.47,0.47
		v15.73c0,0.26,0.21,0.48,0.48,0.48l0,0h15.73c0.26,0.01,0.48-0.2,0.49-0.47c0.01-0.26-0.2-0.48-0.47-0.49
		C33.87,33.38,33.87,33.38,33.86,33.38z"/>
</g>
</svg>
