<?xml version="1.0" encoding="utf-8"?>
<!-- Generator: Adobe Illustrator 26.0.1, SVG Export Plug-In . SVG Version: 6.00 Build 0)  -->
<svg version="1.1" id="Livello_1" xmlns="http://www.w3.org/2000/svg" xmlns:xlink="http://www.w3.org/1999/xlink" x="0px" y="0px"
	 viewBox="0 0 30 30" enable-background="new 0 0 30 30" xml:space="preserve">
<path id="Layer_2" fill="#0099C2" d="M8.65,11.33h13.69c0.56,0,1.01-0.45,1.01-1.01V7.65c0-0.56-0.45-1.01-1.01-1.01H7.66
	c-0.56,0-1.01,0.45-1.01,1.01v2.66c0,0.56,0.45,1.01,1.01,1.01h0.33v8.84c0,0.65,0.53,1.18,1.18,1.18h1.49v1
	c0,0.56,0.45,1.01,1.01,1.01h10.68c0.56,0,1.01-0.45,1.01-1.01v-2.66c0-0.56-0.45-1.01-1.01-1.01H11.66c-0.56,0-1.01,0.45-1.01,1.01
	v1H9.17c-0.29,0-0.52-0.23-0.52-0.52v-4.83h2v1c0,0.56,0.45,1.01,1.01,1.01h10.68c0.56,0,1.01-0.45,1.01-1.01v-2.66
	c0-0.56-0.45-1.01-1.01-1.01H11.66c-0.56,0-1.01,0.45-1.01,1.01v1h-2V11.33z M8.99,7.98h12.03c0.18,0,0.33,0.15,0.33,0.33
	c0,0.18-0.15,0.33-0.33,0.33H8.99c-0.18,0-0.33-0.15-0.33-0.33C8.65,8.13,8.8,7.98,8.99,7.98z M8.99,9.32H15
	c0.18,0,0.33,0.15,0.33,0.33S15.18,9.99,15,9.99H8.99c-0.18,0-0.33-0.15-0.33-0.33C8.65,9.47,8.8,9.32,8.99,9.32
	C8.99,9.32,8.99,9.32,8.99,9.32z M13,20.01h8.02c0.18,0,0.33,0.15,0.33,0.33c0,0.18-0.15,0.33-0.33,0.33H13
	c-0.18,0-0.33-0.15-0.33-0.33C12.66,20.16,12.81,20.01,13,20.01z M13,21.35H17c0.18,0,0.33,0.15,0.33,0.33
	c0,0.18-0.15,0.33-0.33,0.33H13c-0.18,0-0.33-0.15-0.33-0.33C12.66,21.5,12.81,21.35,13,21.35z M13,14h8.02
	c0.18,0,0.33,0.15,0.33,0.33s-0.15,0.33-0.33,0.33H13c-0.18,0-0.33-0.15-0.33-0.33S12.81,14,13,14z M13,15.33H17
	c0.18,0,0.33,0.15,0.33,0.33S17.19,16,17,16H13c-0.18,0-0.33-0.15-0.33-0.33S12.81,15.33,13,15.33z"/>
</svg>
