<?xml version="1.0" encoding="utf-8"?>
<!-- Generator: Adobe Illustrator 26.0.1, SVG Export Plug-In . SVG Version: 6.00 Build 0)  -->
<svg version="1.1" id="Livello_1" xmlns="http://www.w3.org/2000/svg" xmlns:xlink="http://www.w3.org/1999/xlink" x="0px" y="0px"
	 viewBox="0 0 30 30" enable-background="new 0 0 30 30" xml:space="preserve">
<g id="Group_259" transform="translate(-409.221 -1540.48)">
	<path id="Rectangle_225" fill="#0099C2" d="M418.47,1547.17h8.81c0.15,0,0.26,0.12,0.26,0.26v16.08c0,0.15-0.12,0.26-0.26,0.26
		h-8.81c-0.15,0-0.26-0.12-0.26-0.26v-16.08C418.21,1547.29,418.32,1547.17,418.47,1547.17z"/>
	<rect id="Rectangle_226" x="419.25" y="1548.73" fill="#0B0C0C" width="7.27" height="12.47"/>
	<path id="Path_404" fill="#0B0C0C" d="M421.86,1547.69v0.51h2.08v-0.51H421.86z"/>
	<ellipse id="Ellipse_75" fill="#0B0C0C" cx="419.52" cy="1547.95" rx="0.26" ry="0.26"/>
	<ellipse id="Ellipse_76" fill="#0B0C0C" cx="422.88" cy="1562.48" rx="0.79" ry="0.78"/>
	<circle id="Ellipse_77" fill="#0099C2" cx="422.88" cy="1553.4" r="2.34"/>
	<path id="Path_406" fill="#0099C2" d="M422.07,1553.98c-0.32,0.16-0.46,0.56-0.29,0.88c0,0,0,0,0,0l2.26,4.51l-1.99-0.66
		c-0.35-0.11-0.72,0.09-0.83,0.43c-0.11,0.34,0.08,0.7,0.41,0.82c1.63,0.31,2.63,2.03,4.79,2.16l0.68,1.35l3.14-1.57l-0.4-0.8
		c-0.37-0.74,0.01-1.78-0.28-2.4l-1.42-2.84c-0.16-0.32-0.56-0.46-0.88-0.29c-0.32,0.16-0.45,0.56-0.29,0.88l-0.19-0.38
		c-0.16-0.32-0.56-0.46-0.88-0.29c0,0,0,0,0,0c-0.28,0.14-0.42,0.46-0.34,0.77l-0.13-0.26c-0.16-0.33-0.56-0.46-0.88-0.29
		c-0.28,0.14-0.42,0.45-0.34,0.75l-1.23-2.46C422.79,1553.95,422.39,1553.82,422.07,1553.98
		C422.07,1553.98,422.07,1553.98,422.07,1553.98L422.07,1553.98z"/>
	<path id="Path_407" fill="#0B0C0C" d="M422.17,1554.19c-0.24,0.12-0.33,0.41-0.22,0.64c0,0,0,0,0,0l0.27,0.54l0.86-0.43l-0.27-0.54
		C422.7,1554.17,422.41,1554.07,422.17,1554.19C422.17,1554.19,422.17,1554.19,422.17,1554.19L422.17,1554.19z M421.39,1559.54
		c-0.06,0.18,0.1,0.38,0.35,0.46c0.15,0.05,0.38,0.12,0.58,0.19l0.21-0.64l-0.57-0.19C421.7,1559.27,421.45,1559.35,421.39,1559.54
		L421.39,1559.54z"/>
</g>
</svg>
