<?xml version="1.0" encoding="utf-8"?>
<!-- Generator: Adobe Illustrator 26.0.1, SVG Export Plug-In . SVG Version: 6.00 Build 0)  -->
<svg version="1.1" id="Livello_1" xmlns="http://www.w3.org/2000/svg" xmlns:xlink="http://www.w3.org/1999/xlink" x="0px" y="0px"
	 viewBox="0 0 30 30" enable-background="new 0 0 30 30" xml:space="preserve">
<g id="Group_260_00000085239509700607301910000016165851430521449870_" transform="translate(34.667 -1)">
	<path id="Path_410_00000008845184888140493840000006279458057902081932_" fill="#0099C2" d="M-12.89,19.45
		c0.06-0.12,0.06-0.25,0-0.37l-0.53-0.77c-0.02-0.03-0.02-0.07,0-0.1l0.53-0.77c0.06-0.12,0.06-0.25,0-0.37
		c-0.04-0.12-0.14-0.22-0.26-0.26l-0.92-0.33c-0.03-0.01-0.06-0.04-0.07-0.08v-0.93c-0.01-0.13-0.08-0.26-0.19-0.33
		c-0.08-0.05-0.17-0.08-0.26-0.08h-0.19l-0.95,0.24c-0.03,0.01-0.05,0.01-0.08,0l-0.61-0.72c-0.18-0.19-0.48-0.2-0.67-0.03
		c-0.01,0.01-0.02,0.02-0.03,0.03l-0.61,0.72c-0.03,0.01-0.05,0.01-0.08,0h0l-1-0.25h-0.12c-0.09,0-0.18,0.03-0.26,0.08
		c-0.11,0.08-0.18,0.2-0.19,0.33v0.93c-0.01,0.04-0.03,0.07-0.07,0.08l-0.91,0.33c-0.22,0.03-0.37,0.22-0.38,0.44
		c0,0.06,0.01,0.13,0.04,0.18l0.53,0.77c0.02,0.03,0.02,0.07,0,0.1l-0.53,0.78c-0.06,0.12-0.06,0.25,0,0.37
		c0.04,0.12,0.14,0.22,0.26,0.26l0.92,0.33c0.03,0.01,0.06,0.04,0.07,0.08v0.93c0.01,0.13,0.08,0.26,0.19,0.33
		c0.08,0.05,0.17,0.08,0.26,0.08h0.19l0.34-0.08v4.08l1.7-2.21l1.63,2.21v-4.08l0.34,0.09h0.13c0.09,0,0.18-0.03,0.26-0.08
		c0.11-0.08,0.18-0.2,0.19-0.33v-0.93c0.01-0.04,0.03-0.07,0.07-0.08l0.91-0.33C-13.07,19.68-12.95,19.59-12.89,19.45L-12.89,19.45z
		"/>
	<path id="Path_411_00000142876293710567388850000013644404226077253049_" fill="#0099C2" d="M-28.67,8.65v13.48h9l-0.12-0.06
		c-0.32-0.22-0.53-0.58-0.55-0.97v-0.09h-7.2V9.78h15.75v11.23h-1.61v0.09c-0.02,0.39-0.22,0.75-0.55,0.97l-0.09,0.06h3.37V8.65
		H-28.67z"/>
	<path id="Path_412_00000017495903234032781860000009078937402760874119_" fill="#0099C2" d="M-20.35,15.26
		c0.01-0.4,0.21-0.78,0.54-1.01c0.03-0.01,0.06-0.01,0.09,0h-5.56v1.11h4.93V15.26z"/>
	<path id="Path_413_00000114063044800320829230000016459228032042021250_" fill="#0099C2" d="M-21.48,16.5h-3.8v1.11h3.74
		c-0.15-0.29-0.17-0.63-0.05-0.93C-21.58,16.61-21.54,16.54-21.48,16.5L-21.48,16.5z"/>
	<path id="Path_414_00000086679347592717796450000016575242097039638689_" fill="#0099C2" d="M-25.33,12.02H-14v1.11h-11.33V12.02z"
		/>
</g>
</svg>
