<?xml version="1.0" encoding="utf-8"?>
<!-- Generator: Adobe Illustrator 26.0.1, SVG Export Plug-In . SVG Version: 6.00 Build 0)  -->
<svg version="1.1" id="Livello_1" xmlns="http://www.w3.org/2000/svg" xmlns:xlink="http://www.w3.org/1999/xlink" x="0px" y="0px"
	 viewBox="0 0 50 30" enable-background="new 0 0 50 30" xml:space="preserve">
<g>
	<path fill="#FFFFFF" d="M36.6,0.27c-0.26,0.03-0.57,0.1-0.81,0.19c-0.08,0.03-1.34,0.53-2.79,1.1L30.36,2.6l-0.27-0.12
		c-1.58-0.67-3.2-1.05-4.93-1.14c-0.37-0.02-1.39-0.01-1.74,0.02c-1.28,0.1-2.39,0.33-3.57,0.73C17.16,3,14.78,4.75,13.05,7.07
		c-1.45,1.94-2.38,4.27-2.68,6.68c-0.08,0.67-0.11,1.09-0.11,1.79c0,0.69,0.03,1.23,0.12,1.85c0.29,2.16,1.04,4.17,2.22,5.96
		c0.09,0.13,0.16,0.24,0.16,0.24s0.04-0.05,0.08-0.11c0.74-1.11,1.25-2.22,1.59-3.41c0.12-0.42,0.16-0.62,0.28-1.39
		c0.14-0.89,0.52-1.79,1.08-2.52c0.32-0.42,0.73-0.84,1.13-1.14c1.52-1.14,3.5-1.46,5.32-0.85c0.96,0.32,1.81,0.89,2.48,1.65
		c0.75,0.85,1.23,1.92,1.38,3.06c0.12,0.96,0,1.94-0.36,2.84c-0.26,0.66-0.63,1.25-1.13,1.79c-0.46,0.51-1.1,0.98-1.73,1.28
		c-0.59,0.28-1.07,0.42-1.87,0.54c-0.46,0.07-0.83,0.15-1.28,0.29c-0.94,0.29-1.82,0.68-2.65,1.17c-0.23,0.14-0.67,0.42-0.67,0.43
		c0,0.01,0.51,0.34,0.74,0.48c1.7,1.02,3.58,1.67,5.55,1.91c0.65,0.08,1.04,0.1,1.77,0.1c0.73,0,1.12-0.02,1.77-0.1
		c2.29-0.29,4.49-1.13,6.35-2.44c2.03-1.43,3.66-3.34,4.71-5.55c1.02-2.14,1.49-4.53,1.35-6.89c-0.1-1.71-0.48-3.35-1.16-4.91
		L37.4,9.64l1.08-2.73c0.59-1.5,1.1-2.79,1.12-2.85c0.06-0.18,0.1-0.36,0.12-0.55c0.02-0.18,0.03-0.51,0.01-0.67
		c-0.18-1.47-1.45-2.6-2.9-2.58C36.73,0.26,36.63,0.26,36.6,0.27L36.6,0.27z M37.07,1.68c0.53,0.1,0.97,0.47,1.17,0.97
		c0.07,0.18,0.1,0.34,0.1,0.54c0,0.21-0.02,0.34-0.09,0.54c-0.05,0.13-5.9,14.93-5.96,15.06c-0.04,0.09-0.11,0.21-0.2,0.33
		c-0.3,0.39-0.84,0.61-1.35,0.56c-0.5-0.05-0.92-0.31-1.17-0.73c-0.03-0.05-0.37-0.76-0.75-1.58c-0.39-0.82-0.74-1.57-0.79-1.67
		c-0.75-1.43-1.88-2.63-3.25-3.45c-0.35-0.21-0.54-0.3-2.15-1.06c-0.82-0.39-1.54-0.73-1.59-0.76c-0.57-0.36-0.84-1.06-0.66-1.73
		c0.04-0.14,0.13-0.34,0.21-0.46c0.13-0.2,0.38-0.41,0.6-0.51c0.11-0.05,15.04-5.96,15.17-6c0.05-0.02,0.13-0.04,0.18-0.05
		C36.65,1.66,36.94,1.66,37.07,1.68L37.07,1.68z"/>
	<path fill="#FFFFFF" d="M31.33,5.93c-1.18,0.11-2.11,1.03-2.25,2.21c-0.02,0.16-0.01,0.57,0.02,0.71c0.15,0.8,0.64,1.46,1.35,1.81
		c0.59,0.3,1.28,0.35,1.91,0.14c0.59-0.19,1.1-0.61,1.41-1.16c0.4-0.7,0.42-1.6,0.06-2.33C33.37,6.38,32.37,5.83,31.33,5.93
		L31.33,5.93z M31.86,7.34c0.49,0.13,0.84,0.58,0.85,1.09c0,0.57-0.44,1.06-1.01,1.12c-0.32,0.03-0.64-0.07-0.88-0.3
		c-0.23-0.22-0.36-0.5-0.36-0.82c0-0.3,0.1-0.56,0.3-0.77c0.19-0.2,0.4-0.31,0.66-0.35C31.53,7.29,31.74,7.3,31.86,7.34z"/>
	<path fill="#FFFFFF" d="M31.86,7.34c0.49,0.13,0.84,0.58,0.85,1.09c0,0.57-0.44,1.06-1.01,1.12c-0.32,0.03-0.64-0.07-0.88-0.3
		c-0.23-0.22-0.36-0.5-0.36-0.82c0-0.3,0.1-0.56,0.3-0.77c0.19-0.2,0.4-0.31,0.66-0.35C31.53,7.29,31.74,7.3,31.86,7.34z"/>
	<path fill="#FFFFFF" d="M18.07,17.53c-0.42,0.07-0.79,0.28-1.09,0.63c-0.33,0.37-0.55,0.76-0.7,1.21
		c-0.12,0.36-0.17,0.68-0.17,1.06c0,0.28,0.02,0.47,0.07,0.72l0.04,0.18l-1.47,1.47l-1.47,1.47l0.12,0.15c0.2,0.25,0.42,0.5,0.6,0.7
		l0.07,0.08l1.35-1.35l1.35-1.35l0.02,0.03c0.12,0.18,0.41,0.47,0.6,0.62l0.12,0.09l-1.35,1.36l-1.35,1.36l0.07,0.06
		c0.29,0.26,0.77,0.67,0.84,0.71c0.01,0.01,0.43-0.4,1.49-1.46l1.47-1.47l0.13,0.03c0.24,0.06,0.44,0.07,0.74,0.07
		c0.41,0,0.71-0.05,1.09-0.17c0.48-0.16,0.94-0.45,1.3-0.8c0.28-0.28,0.43-0.55,0.51-0.9c0.03-0.13,0.04-0.46,0.02-0.6
		c-0.1-0.71-0.61-1.28-1.31-1.45c-0.18-0.05-0.52-0.06-0.7-0.03c-0.18,0.03-0.35,0.09-0.52,0.18L19.8,20.2l0.06-0.1
		c0.21-0.37,0.27-0.85,0.17-1.27c-0.17-0.68-0.73-1.19-1.43-1.29C18.45,17.51,18.21,17.51,18.07,17.53L18.07,17.53z M18.51,18.75
		c0.14,0.05,0.24,0.14,0.31,0.28c0.04,0.08,0.04,0.1,0.04,0.21c0,0.12,0,0.14-0.04,0.22c-0.11,0.24-0.57,0.57-0.99,0.71
		c-0.11,0.04-0.32,0.08-0.45,0.1c-0.06,0.01-0.06,0.01-0.06-0.03c0-0.18,0.11-0.57,0.23-0.79c0.14-0.27,0.39-0.58,0.53-0.66
		C18.21,18.72,18.37,18.7,18.51,18.75L18.51,18.75z M19.17,20.84c-0.01,0.01-0.05,0.07-0.1,0.15c-0.26,0.4-0.43,0.83-0.52,1.31
		c-0.01,0.08-0.03,0.15-0.03,0.16c-0.01,0.01-0.22-0.12-0.32-0.2c-0.25-0.18-0.46-0.42-0.61-0.69c-0.03-0.05-0.05-0.08-0.04-0.09
		c0,0,0.06-0.01,0.14-0.02c0.48-0.08,0.97-0.27,1.35-0.54C19.19,20.81,19.18,20.82,19.17,20.84L19.17,20.84z M20.87,21.15
		c0.11,0.03,0.17,0.06,0.25,0.14c0.16,0.16,0.2,0.41,0.1,0.61c-0.04,0.08-0.2,0.24-0.36,0.36c-0.28,0.21-0.72,0.38-1.05,0.41
		l-0.09,0.01l0.01-0.09c0.04-0.33,0.16-0.67,0.34-0.94c0.11-0.16,0.27-0.35,0.36-0.41C20.57,21.14,20.72,21.11,20.87,21.15
		L20.87,21.15z"/>
</g>
</svg>
