<?xml version="1.0" encoding="utf-8"?>
<!-- Generator: Adobe Illustrator 26.0.1, SVG Export Plug-In . SVG Version: 6.00 Build 0)  -->
<svg version="1.1" id="Livello_1" xmlns="http://www.w3.org/2000/svg" xmlns:xlink="http://www.w3.org/1999/xlink" x="0px" y="0px"
	 viewBox="0 0 30 30" enable-background="new 0 0 30 30" xml:space="preserve">
<path id="Path_395" fill="#0099C2" d="M20.76,11.94c-4.57,0-4.57,4.54-4.57,4.57c0,0-0.31,4.54,4.57,4.54c0,0,3.67,0.22,4.04-2.69
	c0.03-0.24-0.14-0.45-0.38-0.48c-0.01,0-0.02,0-0.03,0h-1.27c-0.19,0-0.36,0.12-0.42,0.31c-0.11,0.37-0.5,0.98-1.86,0.98
	c0,0-1.77,0.11-2.05-1.57c-0.04-0.22,0.11-0.43,0.33-0.47c0.03,0,0.06-0.01,0.08-0.01h5.29c0.23,0,0.41-0.19,0.42-0.41c0,0,0,0,0,0
	C24.95,15.48,24.73,11.94,20.76,11.94z M19.01,15.5c-0.14,0-0.25-0.11-0.25-0.25c0-0.03,0-0.05,0.01-0.08
	c0.17-0.52,0.68-1.51,2.01-1.51c1.38,0,1.7,1.03,1.79,1.55c0.02,0.13-0.07,0.26-0.2,0.28c-0.01,0-0.03,0-0.04,0L19.01,15.5z
	 M13.55,14.45c-0.09-0.03-0.15-0.13-0.12-0.22c0.01-0.05,0.05-0.09,0.1-0.11c0.5-0.26,1.11-0.83,1.11-2.05
	c0-2.12-1.49-3.17-3.36-3.17h-5.9c-0.16,0-0.3,0.13-0.31,0.29c0,0,0,0.01,0,0.01v11.27c0,0.16,0.13,0.3,0.29,0.31c0,0,0.01,0,0.01,0
	h5.88c0,0,3.78,0.11,3.78-3.52C15.03,17.29,15.16,14.98,13.55,14.45L13.55,14.45z M7.78,11.24c0-0.12,0.1-0.22,0.22-0.22h3.23
	c0,0,0.83,0,0.83,1.25s-0.5,1.42-1.05,1.42H8.02c-0.12,0-0.22-0.1-0.22-0.22v-2.23H7.78z M11.08,18.69H8.02
	c-0.12,0-0.22-0.1-0.22-0.22v-2.73c0-0.12,0.1-0.22,0.22-0.22h3.23c0,0,1.27-0.02,1.25,1.64C12.5,18.54,11.56,18.67,11.08,18.69z
	 M18.18,9.38v1.03c0,0.12,0.1,0.22,0.22,0.22h4.46c0.12,0,0.22-0.1,0.22-0.22V9.38c0-0.12-0.1-0.22-0.22-0.22h-4.44
	c-0.12-0.02-0.22,0.07-0.24,0.18C18.18,9.36,18.18,9.37,18.18,9.38z"/>
</svg>
