<?xml version="1.0" encoding="utf-8"?>
<!-- Generator: Adobe Illustrator 26.0.1, SVG Export Plug-In . SVG Version: 6.00 Build 0)  -->
<svg version="1.1" id="Livello_1" xmlns="http://www.w3.org/2000/svg" xmlns:xlink="http://www.w3.org/1999/xlink" x="0px" y="0px"
	 viewBox="0 0 30 30" enable-background="new 0 0 30 30" xml:space="preserve">
<path id="Path_394" fill="#0099C2" d="M11.61,12.84v8.11H8.95v-8.11H11.61z M11.78,10.34c0,0.01,0,0.03,0,0.05
	c0,0.36-0.15,0.7-0.41,0.95h0c-0.28,0.26-0.65,0.4-1.03,0.4c-0.02,0-0.05,0-0.07,0h-0.01c-0.02,0-0.04,0-0.07,0
	c-0.37,0-0.73-0.14-1-0.4l0,0c-0.26-0.25-0.4-0.6-0.4-0.96c0-0.01,0-0.02,0-0.04v0c0-0.01,0-0.02,0-0.03c0-0.37,0.15-0.72,0.42-0.97
	h0c0.28-0.26,0.64-0.4,1.02-0.4c0.02,0,0.04,0,0.07,0h0c0.02,0,0.04,0,0.07,0c0.37,0,0.73,0.14,1.01,0.4l0,0
	c0.26,0.26,0.41,0.61,0.41,0.98V10.34L11.78,10.34z M21.21,16.31v4.65h-2.66v-4.34c0-0.04,0-0.09,0-0.13c0-0.43-0.12-0.86-0.34-1.22
	l0.01,0.01c-0.22-0.31-0.57-0.49-0.94-0.49c-0.03,0-0.06,0-0.09,0h0c-0.01,0-0.03,0-0.04,0c-0.29,0-0.58,0.1-0.81,0.29l0,0
	c-0.22,0.18-0.4,0.42-0.51,0.69l0,0.01c-0.06,0.19-0.09,0.39-0.09,0.59c0,0.02,0,0.05,0,0.07v4.52h-2.66
	c0.01-2.18,0.02-3.94,0.02-5.3c0-1.35,0-2.16-0.01-2.42l-0.01-0.39h2.66v1.18h-0.02c0.1-0.16,0.21-0.32,0.34-0.46l0,0
	c0.14-0.15,0.29-0.29,0.45-0.42l0.01-0.01c0.21-0.16,0.44-0.28,0.69-0.35l0.01,0c0.29-0.09,0.59-0.13,0.89-0.13h0.04
	c0.04,0,0.08,0,0.12,0c0.8,0,1.56,0.34,2.1,0.93l0,0C20.93,14.2,21.21,15.11,21.21,16.31L21.21,16.31z"/>
</svg>
