<?xml version="1.0" encoding="utf-8"?>
<!-- Generator: Adobe Illustrator 26.0.1, SVG Export Plug-In . SVG Version: 6.00 Build 0)  -->
<svg version="1.1" id="Livello_1" xmlns="http://www.w3.org/2000/svg" xmlns:xlink="http://www.w3.org/1999/xlink" x="0px" y="0px"
	 viewBox="0 0 13.62 13.08" enable-background="new 0 0 13.62 13.08" xml:space="preserve">
<g>
	<g>
		<g>
			<path fill="#0099C2" d="M6.41,9.68C7.44,9.73,8.33,9.44,9.07,8.7c1.21-1.21,1.09-3.17-0.08-4.34C7.82,3.2,5.86,3.04,4.64,4.26
				C3.91,4.99,3.57,6.04,3.67,7.08L2.99,6.4C3.06,5.41,3.46,4.5,4.15,3.81c1.53-1.53,3.83-1.45,5.34,0.06
				c1.49,1.49,1.54,3.81,0.02,5.33c-0.67,0.67-1.48,1.08-2.43,1.16L6.41,9.68z"/>
		</g>
	</g>
	<path fill="#0099C2" d="M7.15,1.2C5.72,1.05,4.04,1.65,3.01,2.69c-2.1,2.1-2.02,5.63,0.04,7.69c0.98,0.98,2.33,1.48,3.72,1.47
		c1.37-0.03,2.86-0.55,3.86-1.54c0.97-0.97,1.67-2.72,1.54-4.1l0.74,0.74c-0.13,1.45-0.71,2.81-1.75,3.85
		c-2.34,2.34-6.33,2.43-8.68,0.08C0.09,8.49,0.15,4.54,2.54,2.15c1.01-1.01,2.44-1.64,3.88-1.69L7.15,1.2"/>
</g>
</svg>
