<?xml version="1.0" encoding="utf-8"?>
<!-- Generator: Adobe Illustrator 26.0.1, SVG Export Plug-In . SVG Version: 6.00 Build 0)  -->
<svg version="1.1" id="Livello_1" xmlns="http://www.w3.org/2000/svg" xmlns:xlink="http://www.w3.org/1999/xlink" x="0px" y="0px"
	 viewBox="0 0 30 30" enable-background="new 0 0 30 30" xml:space="preserve">
<path id="Path_348" fill="#0099C2" d="M21.41,10.74c0.02,0.04,0.01,0.1-0.04,0.12c-0.01,0.01-0.03,0.01-0.04,0.01
	c-0.01,0-0.02,0-0.02,0c-0.02-0.01-0.04-0.02-0.05-0.04l0,0l-0.13-0.19L21,10.83l0,0c-0.01,0.01-0.01,0.02-0.03,0.03
	c-0.02,0.01-0.03,0.02-0.05,0.02c-0.05,0-0.09-0.04-0.09-0.09c0-0.02,0-0.03,0.01-0.04l0,0l0.18-0.27l-0.18-0.27
	c-0.02-0.04-0.01-0.1,0.03-0.12l0,0c0.04-0.02,0.1-0.01,0.13,0.03l0.13,0.19l0.13-0.19c0.03-0.04,0.08-0.05,0.13-0.03
	c0.04,0.02,0.06,0.08,0.03,0.12c0,0,0,0,0,0l0,0l-0.18,0.27L21.41,10.74z M17.51,10.35H16.7c-0.06,0-0.11,0.05-0.11,0.11
	c0,0.06,0.05,0.11,0.11,0.11h0.82c0.06,0,0.11-0.05,0.11-0.11C17.62,10.39,17.57,10.35,17.51,10.35L17.51,10.35L17.51,10.35z
	 M18.67,10.03h0.91v0.84h-0.91V10.03z M18.83,10.7h0.6v-0.49h-0.6V10.7z M7.91,10.87c-0.03-0.02-0.03-0.06-0.01-0.09l0.25-0.3
	c-0.1-0.12-0.08-0.31,0.04-0.41c0.12-0.1,0.31-0.08,0.41,0.04c0.1,0.12,0.08,0.31-0.04,0.41c-0.09,0.07-0.21,0.09-0.31,0.04L8,10.86
	C7.97,10.89,7.94,10.89,7.91,10.87L7.91,10.87z M8.2,10.3c0,0.09,0.08,0.17,0.17,0.17c0.09,0,0.17-0.08,0.17-0.17
	c0-0.09-0.08-0.17-0.17-0.17l0,0C8.28,10.13,8.2,10.2,8.2,10.3L8.2,10.3z M23.35,10.23v10.19c0,0.59-0.48,1.06-1.06,1.06H7.71
	c-0.59,0-1.06-0.48-1.06-1.06V10.23c0-0.59,0.48-1.06,1.06-1.06l0,0h14.58C22.88,9.17,23.35,9.65,23.35,10.23z M20.32,11.08h1.67
	V9.78h-1.67V11.08z M18.3,11.08h1.67V9.78H18.3V11.08z M16.28,11.08h1.67V9.78h-1.67V11.08z M7.59,10.61c0,0.28,0.22,0.5,0.5,0.5
	h5.51c0.28,0,0.5-0.22,0.5-0.5v-0.27c0-0.28-0.22-0.5-0.5-0.5H8.1c-0.28,0-0.5,0.22-0.5,0.5L7.59,10.61L7.59,10.61z M22.45,11.74
	H7.55v7.42h14.9V11.74z M8.86,13.62h9.93c0.13,0,0.23-0.1,0.23-0.23c0-0.13-0.1-0.23-0.23-0.23H8.86c-0.13,0-0.23,0.1-0.23,0.23
	S8.73,13.62,8.86,13.62z M8.86,15.08h9.63l0.22-0.46H8.86c-0.13,0-0.23,0.1-0.23,0.23S8.73,15.08,8.86,15.08
	C8.86,15.08,8.86,15.08,8.86,15.08z M8.7,16.15c-0.04,0.04-0.07,0.1-0.07,0.16c0,0.06,0.02,0.12,0.07,0.16
	c0.04,0.04,0.11,0.07,0.17,0.07h9.01l0-0.03c0.01-0.14,0.04-0.27,0.1-0.39L18,16.08H8.86C8.8,16.08,8.74,16.11,8.7,16.15L8.7,16.15z
	 M17.8,17.54H8.86c-0.13,0-0.23,0.1-0.23,0.23c0,0.06,0.02,0.12,0.07,0.16C8.74,17.97,8.8,18,8.87,18h8.93l0-0.01
	c-0.02-0.09-0.02-0.18-0.01-0.27l0,0c0,0,0-0.01,0-0.01C17.8,17.66,17.8,17.6,17.8,17.54L17.8,17.54z M18.57,16.4
	c0.5-1.03,1.01-2.06,1.51-3.09c0.01-0.01,0.02-0.03,0.03-0.05l1.08,0.53l-0.22,0.45c-0.43,0.87-0.85,1.75-1.28,2.62
	c-0.04,0.09-0.1,0.17-0.18,0.23c-0.28,0.25-0.57,0.51-0.85,0.76c-0.05,0.04-0.1,0.11-0.17,0.07c-0.07-0.03-0.05-0.11-0.04-0.17
	c0.03-0.4,0.06-0.81,0.09-1.21C18.53,16.5,18.55,16.45,18.57,16.4L18.57,16.4z M18.96,16.33c0.03,0.04,0.07,0.06,0.12,0.05
	c0.05-0.02,0.09-0.06,0.11-0.11c0.33-0.68,0.66-1.35,0.99-2.02c0.07-0.14,0.13-0.27,0.2-0.41c0.03-0.06,0.01-0.14-0.05-0.18
	c0,0,0,0,0,0c-0.06-0.03-0.14,0-0.17,0.06c0,0,0,0,0,0c-0.01,0.01-0.01,0.03-0.02,0.04l-0.94,1.93c-0.08,0.16-0.16,0.33-0.24,0.49
	C18.93,16.23,18.93,16.28,18.96,16.33L18.96,16.33z M18.91,17.26c0.02,0.01,0.05,0.01,0.07-0.01c0.15-0.13,0.29-0.26,0.45-0.4
	l-0.64-0.31c-0.01,0.16-0.02,0.31-0.04,0.46C18.73,17.18,18.73,17.18,18.91,17.26L18.91,17.26z M21.5,13.16
	c0.05-0.12,0-0.25-0.12-0.3c-0.22-0.11-0.44-0.22-0.66-0.32c-0.1-0.05-0.23-0.01-0.29,0.08c-0.08,0.13-0.14,0.28-0.22,0.42
	l1.09,0.53C21.37,13.43,21.44,13.3,21.5,13.16L21.5,13.16z"/>
</svg>
