<?xml version="1.0" encoding="utf-8"?>
<!-- Generator: Adobe Illustrator 26.0.1, SVG Export Plug-In . SVG Version: 6.00 Build 0)  -->
<svg version="1.1" id="Livello_1" xmlns="http://www.w3.org/2000/svg" xmlns:xlink="http://www.w3.org/1999/xlink" x="0px" y="0px"
	 viewBox="0 0 30 30" enable-background="new 0 0 30 30" xml:space="preserve">
<g id="Group_258" transform="translate(-2.5 -3.897)">
	<path id="Layer_3" fill="#0099C2" d="M17.67,14.18c-0.1-0.83-1.25-1.06-1.52-1.18c-0.13-0.06-0.27-0.1-0.41-0.1
		c-0.14,0-0.28,0.06-0.37,0.17c-0.22,0.26-0.33,0.6-0.3,0.94l-1.48,0.65c0,0-0.01,0-0.01,0c-0.08-0.02-0.16-0.03-0.25-0.03
		c-0.42,0-0.79,0.27-0.91,0.68c-0.04,0.14-0.04,0.28-0.01,0.42L11.3,16.9c-0.1,0.08-0.19,0.18-0.25,0.29
		c-0.12,0.22-0.14,0.47-0.07,0.7c0.03,0.1,0.08,0.2,0.15,0.29l0.02,0.03c0.28,0.35,0.22,0.86-0.13,1.13
		c-0.03,0.03-0.07,0.05-0.1,0.07c-0.24,0.13-0.41,0.36-0.47,0.63c-0.1,0.5,0.23,0.99,0.73,1.08c0.06,0.01,0.12,0.02,0.19,0.02
		c0.04,0,0.08-0.01,0.12-0.01l0.79,1.37c-0.15,0.19-0.22,0.43-0.19,0.68c0.05,0.38,0.33,0.69,0.7,0.78
		c0.26,0.06,0.54,0.01,0.77-0.14l1.36,0.67c0.02,0.73,0.53,0.83,0.83,0.83c0.56,0.02,1.03-0.41,1.06-0.97l0.87-0.03L17.67,14.18z"/>
	<g id="Layer_1" transform="translate(2.5 3.897)">
		<path id="Path_396" fill="#0099C2" d="M23.33,15.69c-0.07-0.23-0.32-0.35-0.55-0.28c-0.1,0.03-0.18,0.1-0.23,0.18
			c-0.07,0.11-0.08,0.25-0.04,0.37c0.01,0.03,0.02,0.06,0.04,0.09c0.06,0.12,0.16,0.21,0.29,0.25c0.03,0.01,0.07,0.01,0.1,0.01
			c0.06,0,0.12-0.01,0.18-0.04C23.34,16.17,23.43,15.91,23.33,15.69z M22.97,16.75c0.21,0.11,0.29,0.36,0.18,0.57c0,0,0,0,0,0
			c-0.3,0.58-0.85,0.99-1.48,1.12c0.06,0.19,0.1,0.39,0.12,0.58c0,0.04,0,0.08,0,0.12c0,0.23-0.19,0.43-0.43,0.43
			c-0.09,0-0.17-0.03-0.24-0.07c-0.12-0.08-0.19-0.21-0.19-0.35v-0.07c-0.01-0.23-0.08-0.44-0.2-0.64c-0.68-0.15-1.24-0.6-1.53-1.23
			c-0.1-0.21,0-0.47,0.21-0.56c0.21-0.1,0.47,0,0.56,0.21l0,0c0.31,0.68,1.11,0.98,1.79,0.67c0.27-0.12,0.5-0.34,0.64-0.6
			c0.07-0.14,0.22-0.23,0.38-0.23C22.84,16.7,22.91,16.72,22.97,16.75z M21.49,11.65c1.08,0.41,1.66,1.6,1.32,2.7
			c-0.08,0.25-0.2,0.48-0.36,0.69c-0.08,0.1-0.21,0.16-0.34,0.16c-0.09,0-0.18-0.03-0.26-0.09c-0.19-0.14-0.22-0.41-0.08-0.59
			c0,0,0,0,0,0c0.1-0.13,0.17-0.27,0.22-0.42c0.19-0.63-0.1-1.31-0.69-1.61c-0.03,0.07-0.07,0.14-0.1,0.2
			c-0.29,0.51-0.77,0.88-1.33,1.03c-0.04,0.01-0.07,0.01-0.11,0.01c-0.24,0-0.43-0.19-0.43-0.42c0-0.19,0.13-0.36,0.32-0.41
			c0.72-0.18,1.16-0.91,0.98-1.63c-0.18-0.72-0.91-1.16-1.63-0.98c-0.02,0-0.04,0.01-0.06,0.02c-0.01,0.01-0.03,0.01-0.05,0.02
			c-0.04,0.22-0.1,0.44-0.2,0.64c-0.16,0.35-0.42,0.64-0.75,0.84c-0.35,0.2-0.74,0.3-1.14,0.3c-0.23,0-0.43-0.18-0.43-0.42
			c0-0.23,0.18-0.43,0.42-0.43c0.01,0,0.01,0,0.02,0c0.47,0.03,0.92-0.23,1.12-0.66c0.24-0.55,0.18-1.18-0.18-1.66
			c-0.28-0.34-0.68-0.46-1.18-0.34c-0.65,0.15-0.99,0.62-1.11,1.56c0.03,0.34,0.05,0.68,0.05,1.03c0.01,0.72,0,1.44-0.01,2.16
			c0.02,0.04,0.04,0.07,0.07,0.1c0.19,0.14,0.41,0.23,0.64,0.25c0.27-0.46,0.75-0.77,1.28-0.84c0.23-0.02,0.44,0.15,0.46,0.39
			c0.02,0.23-0.15,0.43-0.38,0.46c-0.5,0.05-0.72,0.58-0.72,0.59c-0.06,0.16-0.22,0.27-0.4,0.27h-0.01c-0.33,0-0.65-0.06-0.95-0.18
			c-0.01,0.57-0.02,1.13-0.02,1.7c0,0.09,0,0.18,0,0.27c-0.01,0.24-0.2,0.42-0.44,0.42c-0.23-0.01-0.41-0.19-0.42-0.42
			c0-0.08,0-0.16,0-0.24c0-0.01,0-0.02,0-0.03c0-0.56-0.01-1.13-0.02-1.69c-0.31,0.12-0.63,0.18-0.96,0.18H13.6
			c-0.17,0-0.33-0.11-0.4-0.27c-0.01-0.02-0.22-0.54-0.72-0.59c-0.23-0.03-0.4-0.24-0.37-0.47c0.03-0.23,0.23-0.4,0.46-0.38
			c0.53,0.07,1.01,0.37,1.28,0.83c0.12-0.01,0.23-0.04,0.34-0.08c0.15-0.03,0.29-0.13,0.37-0.27c-0.01-0.79-0.02-1.6-0.01-2.39
			c0-0.21,0.01-0.5,0.04-0.81c-0.09-0.66-0.31-1.21-0.88-1.46c-0.49-0.22-0.91-0.18-1.22,0.12c-0.44,0.49-0.57,1.18-0.34,1.8
			c0.13,0.31,0.41,0.67,1.07,0.67h0.03c0.23,0,0.42,0.2,0.42,0.43c0,0.23-0.19,0.41-0.41,0.42h-0.03c-0.87,0-1.55-0.43-1.86-1.19
			c-0.07-0.18-0.12-0.37-0.15-0.57c-0.03-0.01-0.07-0.03-0.1-0.04c-0.71-0.21-1.46,0.19-1.68,0.9s0.19,1.46,0.9,1.68
			c0.02,0.01,0.04,0.01,0.06,0.02c0.23,0.06,0.36,0.29,0.3,0.52c-0.05,0.19-0.22,0.32-0.41,0.32c-0.04,0-0.07-0.01-0.11-0.01
			c-0.56-0.15-1.04-0.52-1.33-1.03c-0.04-0.07-0.07-0.13-0.1-0.2c-0.6,0.29-0.89,0.97-0.69,1.6c0.05,0.15,0.12,0.3,0.22,0.42
			c0.14,0.19,0.11,0.45-0.08,0.6c-0.01,0.01-0.03,0.02-0.04,0.03c-0.41,0.24-0.66,0.68-0.66,1.16c0,0.24-0.2,0.42-0.44,0.42
			c-0.23,0-0.41-0.19-0.42-0.42c0-0.62,0.27-1.21,0.72-1.63c-0.05-0.1-0.09-0.21-0.13-0.32c-0.34-1.11,0.24-2.29,1.32-2.7
			c-0.01-0.21,0.02-0.42,0.08-0.62c0.31-1.13,1.45-1.82,2.6-1.56c0.09-0.49,0.32-0.93,0.66-1.29c0.57-0.54,1.36-0.65,2.17-0.28
			c0.4,0.18,0.73,0.47,0.95,0.84c0.3-0.5,0.79-0.85,1.35-0.97c0.81-0.19,1.55,0.04,2.04,0.64c0.24,0.3,0.4,0.66,0.47,1.05
			c1.13-0.22,2.24,0.47,2.54,1.58C21.46,11.24,21.49,11.44,21.49,11.65z M22.77,9.92c0.06,0.23-0.07,0.47-0.3,0.53
			c0,0-0.01,0-0.01,0c-0.03,0.01-0.06,0.01-0.09,0.01c-0.2-0.01-0.38-0.15-0.43-0.35c0-0.01-0.01-0.03-0.01-0.04
			c-0.05-0.23,0.1-0.46,0.33-0.51c0,0,0.01,0,0.01,0C22.5,9.53,22.72,9.69,22.77,9.92L22.77,9.92z M22.32,8.74
			c0.13,0.2,0.07,0.46-0.13,0.58c0,0,0,0,0,0c-0.07,0.04-0.15,0.07-0.23,0.07c-0.15,0-0.28-0.07-0.36-0.2
			c-0.63-0.98-1.9-1.08-1.91-1.08c-0.23-0.02-0.41-0.22-0.4-0.45c0.02-0.23,0.22-0.41,0.45-0.4l0,0
			C19.82,7.27,21.46,7.39,22.32,8.74z M21.27,19.86c0.19,0.14,0.23,0.4,0.09,0.59c0,0,0,0,0,0c-0.07,0.1-0.16,0.2-0.25,0.28
			c-0.08,0.08-0.19,0.12-0.3,0.12c-0.12,0-0.23-0.05-0.31-0.13c-0.02-0.02-0.04-0.04-0.05-0.07c-0.11-0.17-0.08-0.4,0.06-0.54
			c0.06-0.05,0.11-0.11,0.15-0.17c0.08-0.11,0.21-0.17,0.34-0.17C21.11,19.77,21.2,19.8,21.27,19.86z"/>
		<path id="Path_397" fill="#0099C2" d="M20.19,20.68c0.05,0.07,0.08,0.15,0.08,0.24c0,0.24-0.19,0.43-0.43,0.43
			c-0.24,0-0.47-0.04-0.7-0.11c-0.26,0.88-1.06,1.49-1.98,1.49H17.1c-0.76,0-1.47-0.36-1.92-0.97c-0.45,0.61-1.17,0.97-1.93,0.97
			H13.2c-0.92,0-1.72-0.61-1.98-1.49c-1.17,0.39-2.44-0.25-2.83-1.42c-0.07-0.23-0.11-0.46-0.11-0.7c0-0.24,0.04-0.48,0.12-0.72
			c-0.48-0.11-0.91-0.37-1.23-0.74c-0.15-0.18-0.13-0.46,0.05-0.61c0.02-0.02,0.04-0.03,0.06-0.05c0.18-0.1,0.41-0.06,0.55,0.1
			c0.49,0.58,1.36,0.65,1.94,0.16c0.16-0.13,0.28-0.3,0.36-0.48c0.1-0.22,0.36-0.31,0.57-0.21c0,0,0,0,0,0
			c0.11,0.05,0.2,0.15,0.23,0.27c0.03,0.1,0.02,0.21-0.02,0.3c-0.29,0.64-0.87,1.11-1.56,1.26c-0.14,0.22-0.21,0.47-0.21,0.72
			c0.01,0.76,0.64,1.36,1.4,1.35c0.74-0.01,1.34-0.61,1.35-1.35c0-0.24,0.19-0.43,0.43-0.43c0.24,0,0.43,0.19,0.43,0.43
			c0,0.64-0.27,1.25-0.75,1.67c0.06,0.62,0.58,1.09,1.2,1.08h0.03c0.79,0.02,1.44-0.6,1.49-1.38c-0.04-0.62-0.03-1.25-0.01-1.86
			c0.01-0.31,0.01-0.62,0.01-0.92v-0.09c0-0.24,0.19-0.43,0.43-0.43c0.24,0,0.43,0.19,0.43,0.43c0,0.31,0.01,0.63,0.01,0.95
			c0.01,0.63,0.03,1.29-0.01,1.93c0.04,0.78,0.7,1.39,1.49,1.38h0.03c0.62,0.02,1.15-0.46,1.21-1.08c-0.48-0.42-0.75-1.03-0.75-1.67
			c0-0.24,0.19-0.43,0.43-0.43c0.24,0,0.43,0.19,0.43,0.43c0,0,0,0,0,0c0,0.76,0.62,1.37,1.38,1.37
			C19.97,20.49,20.11,20.56,20.19,20.68z M18.23,16.28c0.24,0.01,0.42,0.22,0.41,0.45c0,0.03,0,0.06-0.01,0.08
			c-0.05,0.19-0.22,0.33-0.42,0.33h-0.02c-0.14-0.01-1.33-0.08-1.76-0.98c-0.03-0.06-0.04-0.12-0.04-0.19
			c0-0.24,0.19-0.43,0.43-0.43c0.17,0,0.32,0.1,0.39,0.25C17.39,16.16,18.01,16.27,18.23,16.28z"/>
		<path id="Path_398" fill="#0099C2" d="M13.96,15.98c0,0.07-0.02,0.13-0.04,0.19c-0.43,0.9-1.63,0.98-1.76,0.98h-0.02
			c-0.2,0-0.38-0.14-0.42-0.33c-0.01-0.03-0.01-0.06-0.01-0.08c-0.01-0.24,0.18-0.44,0.41-0.45c0.22-0.01,0.84-0.12,1.02-0.49
			c0.1-0.22,0.36-0.31,0.58-0.21C13.87,15.66,13.96,15.81,13.96,15.98z M9.01,21.73c0.23,0.08,0.34,0.34,0.25,0.56
			c-0.06,0.17-0.22,0.28-0.4,0.28c-0.05,0-0.1-0.01-0.15-0.03c-1.34-0.5-1.84-1.86-1.86-1.91c-0.08-0.23,0.04-0.47,0.26-0.55
			c0.23-0.08,0.47,0.04,0.55,0.26C7.67,20.35,8.05,21.38,9.01,21.73z"/>
	</g>
</g>
</svg>
