<?xml version="1.0" encoding="utf-8"?>
<!-- Generator: Adobe Illustrator 26.0.1, SVG Export Plug-In . SVG Version: 6.00 Build 0)  -->
<svg version="1.1" id="Livello_1" xmlns="http://www.w3.org/2000/svg" xmlns:xlink="http://www.w3.org/1999/xlink" x="0px" y="0px"
	 viewBox="0 0 30 30" enable-background="new 0 0 30 30" xml:space="preserve">
<path id="Path_393" fill="#0099C2" d="M20.91,8.93H9.09c-1.34,0-2.42,1.08-2.42,2.42v7.3c0,1.34,1.08,2.42,2.42,2.42h11.82
	c1.34,0,2.42-1.08,2.42-2.42v-7.3C23.33,10.02,22.25,8.93,20.91,8.93z M21.72,18.65c0,0.44-0.36,0.81-0.8,0.81c0,0,0,0,0,0H9.09
	c-0.44,0-0.81-0.36-0.81-0.8c0,0,0,0,0,0V11.4l5.22,4.12c0.88,0.7,2.12,0.7,3,0l5.22-4.12V18.65z"/>
</svg>
