<?xml version="1.0" encoding="utf-8"?>
<!-- Generator: Adobe Illustrator 26.0.1, SVG Export Plug-In . SVG Version: 6.00 Build 0)  -->
<svg version="1.1" id="Livello_1" xmlns="http://www.w3.org/2000/svg" xmlns:xlink="http://www.w3.org/1999/xlink" x="0px" y="0px"
	 viewBox="0 0 30 30" enable-background="new 0 0 30 30" xml:space="preserve">
<path id="Path_421" fill="#0099C2" d="M12.17,13.14v-3.07c0-1.13,0.92-2.05,2.05-2.05c1.13,0,2.05,0.92,2.05,2.05v3.07
	c1.7-1.13,2.16-3.43,1.02-5.13s-3.43-2.16-5.13-1.02s-2.16,3.43-1.02,5.13C11.42,12.53,11.76,12.87,12.17,13.14z M16.69,15.17
	C16.46,15.06,16.21,15,15.96,15h-0.5v-4.93c0-0.68-0.55-1.23-1.23-1.23s-1.23,0.55-1.23,1.23v8.83l-2.83-0.59
	c-0.5-0.1-0.99,0.22-1.09,0.71C9,19.32,9.1,19.64,9.31,19.86l3.3,3.3c0.31,0.3,0.73,0.48,1.17,0.48h5.01c0.82,0,1.52-0.6,1.63-1.41
	l0.52-3.67c0.1-0.7-0.26-1.39-0.9-1.7L16.69,15.17L16.69,15.17z"/>
</svg>
