<?xml version="1.0" encoding="utf-8"?>
<!-- Generator: Adobe Illustrator 26.0.1, SVG Export Plug-In . SVG Version: 6.00 Build 0)  -->
<svg version="1.1" id="Livello_1" xmlns="http://www.w3.org/2000/svg" xmlns:xlink="http://www.w3.org/1999/xlink" x="0px" y="0px"
	 viewBox="0 0 30 30" enable-background="new 0 0 30 30" xml:space="preserve">
<path id="Path_362_00000166668888622501393580000000357002575181397654_" fill="#0099C2" d="M8.87,13.6h1.29v8.44h1.94v-7.23h1.94
	v7.23h1.94v-7.23h1.94v7.23h1.94V13.6h1.29c0.34,0.01,0.63-0.26,0.65-0.6c0-0.2-0.1-0.38-0.27-0.49l0,0L21.5,12.5l-0.02-0.01
	l-6.16-3.24V8.3c1.14,0.53,2.07-0.38,3.55,0.17v-2.1c-1.48-0.55-2.41,0.36-3.55-0.17V6.07c-0.02-0.18-0.17-0.32-0.35-0.3
	c-0.16,0.01-0.28,0.14-0.3,0.3v3.18l-6.16,3.24L8.5,12.5l-0.01,0.01l0,0C8.32,12.62,8.22,12.8,8.22,13
	C8.24,13.34,8.52,13.61,8.87,13.6L8.87,13.6z M9.51,22.64l-1.29,1.21h13.56l-1.29-1.2L9.51,22.64z"/>
</svg>
