<?xml version="1.0" encoding="utf-8"?>
<!-- Generator: Adobe Illustrator 26.0.1, SVG Export Plug-In . SVG Version: 6.00 Build 0)  -->
<svg version="1.1" id="Livello_1" xmlns="http://www.w3.org/2000/svg" xmlns:xlink="http://www.w3.org/1999/xlink" x="0px" y="0px"
	 viewBox="0 0 30 29.11" enable-background="new 0 0 30 29.11" xml:space="preserve">
<g id="Group_248" transform="translate(0 -27.38)">
	<g id="Group_242" transform="translate(966 27.379)">
		
			<rect id="Rectangle_203" x="-946.96" y="-0.51" transform="matrix(0.2721 -0.9623 0.9623 0.2721 -694.8852 -897.5662)" fill="#4E4D4D" width="12.46" height="22.08"/>
		<ellipse id="Ellipse_60" fill="#3DC0F0" cx="-949.35" cy="2.04" rx="0.18" ry="0.18"/>
		<ellipse id="Ellipse_61" fill="#3DC0F0" cx="-948.81" cy="2.19" rx="0.18" ry="0.18"/>
		<ellipse id="Ellipse_62" fill="#3DC0F0" cx="-948.26" cy="2.34" rx="0.18" ry="0.18"/>
		<path id="Path_294" fill="#3DC0F0" d="M-938.41,9.17c-0.28-0.05-0.58-0.05-0.86,0.02c0.08-0.28,0.1-0.58,0.06-0.87
			c-0.29,0.1-0.55,0.27-0.77,0.5c-0.07-0.3-0.2-0.58-0.39-0.82c-0.19,0.23-0.33,0.49-0.4,0.77c-0.2-0.2-0.45-0.36-0.72-0.47
			c0,0-0.13,0.65,0.18,1.19c0.27,0.48,0.8,0.7,0.92,0.74l0,0l0,0c0.01,0,0.02,0.01,0.02,0.01s0-0.01,0.01-0.03l0.01-0.01
			c0,0,0,0.01,0,0.01c-0.01,0.02-0.01,0.03-0.01,0.03s0.01,0,0.02,0l0,0l0,0c0.12,0.02,0.68,0.11,1.17-0.15
			C-938.65,9.79-938.41,9.17-938.41,9.17z"/>
		<ellipse id="Ellipse_63" fill="#3DC0F0" cx="-939.47" cy="7.04" rx="0.46" ry="0.46"/>
		
			<rect id="Rectangle_204" x="-940.77" y="4.05" transform="matrix(0.2721 -0.9623 0.9623 0.2721 -695.4352 -896.9654)" fill="#3DC0F0" width="0.31" height="14.29"/>
		
			<rect id="Rectangle_205" x="-947" y="11.25" transform="matrix(0.2721 -0.9623 0.9623 0.2721 -700.4305 -900.9967)" fill="#3DC0F0" width="2.46" height="2.46"/>
		
			<rect id="Rectangle_206" x="-942.59" y="12.5" transform="matrix(0.2721 -0.9623 0.9623 0.2721 -698.4192 -895.8378)" fill="#3DC0F0" width="2.46" height="2.46"/>
		
			<rect id="Rectangle_207" x="-938.17" y="13.75" transform="matrix(0.2721 -0.9623 0.9623 0.2721 -696.4078 -890.6789)" fill="#3DC0F0" width="2.46" height="2.46"/>
		
			<rect id="Rectangle_208" x="-946.38" y="13.34" transform="matrix(0.2721 -0.9623 0.9623 0.2721 -702.4948 -900.1912)" fill="#3DC0F0" width="0.21" height="1.83"/>
		
			<rect id="Rectangle_209" x="-941.96" y="14.59" transform="matrix(0.2721 -0.9623 0.9623 0.2721 -700.4832 -895.0331)" fill="#3DC0F0" width="0.21" height="1.83"/>
		
			<rect id="Rectangle_210" x="-937.55" y="15.84" transform="matrix(0.2721 -0.9623 0.9623 0.2721 -698.4717 -889.8749)" fill="#3DC0F0" width="0.21" height="1.83"/>
		<ellipse id="Ellipse_64" fill="#999999" cx="-950.12" cy="21.55" rx="15.14" ry="0.56"/>
		<ellipse id="Ellipse_65" fill="#999999" cx="-939.78" cy="27.92" rx="11.78" ry="0.56"/>
		<path id="Path_295" fill="#067A9A" d="M-945.6,23.57h3.4V25h-1.98v1.42h1.98v1.42h-3.4V23.57z M-941.52,23.57h3.4v1.24h-1.98v0.25
			h1.98v2.84h-3.4v-1.3h1.98v-0.25h-1.98V23.57z M-937.45,23.57h3.4v1.24h-1.98v0.25h1.98v2.84h-3.4v-1.3h1.98v-0.25h-1.98
			L-937.45,23.57L-937.45,23.57z"/>
		<path id="Path_296" fill="#067A9A" d="M-958.71,17.04h1.4v1.38h1.28v-1.38h1.4v4.19h-1.4v-1.4h-1.28v1.4h-1.4L-958.71,17.04
			L-958.71,17.04z M-952.78,18.43h-1.23v-1.39h3.87v1.39h-1.23v2.8h-1.4L-952.78,18.43L-952.78,18.43L-952.78,18.43z M-949.53,17.04
			h1.46l0.9,1.47l0.9-1.47h1.46v4.19h-1.4v-2.08l-0.96,1.49h-0.02l-0.97-1.49v2.08h-1.37V17.04z M-944.11,17.04h1.4v2.81h1.97v1.39
			h-3.37L-944.11,17.04L-944.11,17.04z"/>
		<path id="Path_297" fill="#F6B6B8" d="M-961.18,19.93l-0.11,1.3l0.92-0.08v-1.11L-961.18,19.93z"/>
		<path id="Path_298" fill="#F6B6B8" d="M-962.03,19.93l0.12,1.3l-0.92-0.08v-1.11L-962.03,19.93z"/>
		<path id="Path_299" fill="#4E4D4D" d="M-959.61,9.9c0,0,0.31,1.84,0.31,2.11s-0.12,1.99-0.31,2.34c-0.19,0.35-0.23,0.5-0.15,0.65
			c0.08,0.15,0.04,0.12,0,0.23c-0.04,0.12-0.12,0.08,0,0.23c0.1,0.14,0.1,0.32,0,0.46c-0.08,0.12,0.15,3.22-0.15,3.45
			c-0.31,0.23-0.38,1-0.38,1l-1-0.12v-0.84c0,0-0.23-0.61-0.08-1c0.15-0.38,0.23-2.42,0.23-2.42s-0.04-0.19,0-0.31s0-0.19-0.08-0.23
			c-0.08-0.04-0.12-0.19-0.12-0.19l-0.12-2.8l-0.46,2.76c0,0,0.46,3.76,0,4.26v0.88h-1l0.15-0.96c0,0-0.31-0.88-0.15-1.07
			s-0.46-3.26-0.38-3.37c0.08-0.12,0.04-0.15,0-0.23c-0.04-0.08-0.15-0.15-0.12-0.23c0.04-0.08,0-0.23,0-0.23s-0.73-3.61-0.38-3.95
			S-959.61,9.9-959.61,9.9z"/>
		<path id="Path_300" fill="#0A0C0D" d="M-961.07,20.74c0,0,0.08-0.37,0.69-0.24c0,0,0.15,0.32,0.15,0.47
			c0,0.15,0.15,1.19,0.15,1.19s0.61,1.04-0.15,1.04s-1.04-0.27-1.07-0.54s0.04-0.35-0.12-0.46c-0.15-0.12-0.23-0.12-0.19-0.27
			c0.04-0.15,0.12-0.92,0.12-0.92s0.04-0.58,0.25-0.42l0.21,0.15"/>
		<path id="Path_301" fill="#0A0C0D" d="M-962.14,20.74c0,0-0.08-0.37-0.69-0.24c0,0-0.15,0.32-0.15,0.47
			c0,0.15-0.15,1.19-0.15,1.19s-0.61,1.04,0.15,1.04s1.04-0.27,1.07-0.54c0.04-0.27-0.04-0.35,0.12-0.46
			c0.15-0.12,0.23-0.12,0.19-0.27c-0.04-0.15-0.12-0.92-0.12-0.92s-0.04-0.58-0.25-0.42l-0.21,0.15"/>
		<circle id="Ellipse_66" fill="#F6B6B8" cx="-961.03" cy="1.76" r="1.04"/>
		<path id="Path_302" fill="#F6B6B8" d="M-961.87,1.91c0,0-0.42,1.65-0.5,1.69c-0.08,0.04,1.76,0.19,1.76,0.19s-0.46-1.42,0-1.65
			L-961.87,1.91z"/>
		<path id="Path_303" fill="#F9F9F9" d="M-962.14,2.92L-962.14,2.92l-1.26,0.87l0.23,6.86c0,0,1.69-0.19,2.07-0.15
			c0.38,0.04,1.61-0.35,1.61-0.35l-0.54-6.45c-0.02-0.26-0.23-0.47-0.49-0.48l-0.23-0.02c0,0-0.23,0.57-0.92,0.28
			C-961.91,3.38-962.09,3.17-962.14,2.92L-962.14,2.92z"/>
		<path id="Path_304" fill="#067A9A" d="M-962.11,2.86l-1.56,0.75l-0.31,4.41c0,0-0.61,2.65-0.12,3.41c0.5,0.77,1.34,0.84,1.34,0.84
			s1.11-4.41,0.81-5.91C-962.26,4.87-962.11,2.86-962.11,2.86z"/>
		<path id="Path_305" fill="#F6B6B8" d="M-965.05,9.54v0.58c0,0-0.23,1.27,0.5,1.23c0.73-0.04,0.38-1.38,0.38-1.38l-0.23-0.42
			H-965.05z"/>
		<path id="Path_306" fill="#F6B6B8" d="M-958.3,10.69l-0.08,0.65c0,0,0.38,1.3-0.35,1.34c-0.73,0.04-0.2-1.33-0.2-1.33l0.24-0.74
			L-958.3,10.69z"/>
		<path id="Path_307" fill="#067A9A" d="M-960.78,3.07L-960.78,3.07c0.7,0.17,1.35,0.51,1.89,0.98l0.01,0.01l-0.54,2.84l-0.08,1.04
			c0,0,1.42,5.06-0.23,4.33c0,0-1.42-4.41-1.23-6.44S-960.78,3.07-960.78,3.07z"/>
		<path id="Path_308" fill="#067A9A" d="M-959.38,4.02c0.04-0.04,0.5,0.05,0.5,0.05s0.84,2.98,0.84,3.48s0.12,3.34,0.12,3.34
			l-1.01,0.1l-0.82-3.94L-959.38,4.02z"/>
		<path id="Path_309" fill="#067A9A" d="M-963.41,3.6h-0.27c0,0-0.77,0.31-0.81,0.65s-1.07,3.84-1.07,3.84l0.27,1.76l1-0.15
			l0.19-1.96l1-2.15L-963.41,3.6z"/>
		<path id="Path_310" fill="#0A0C0D" d="M-961.23,2.05l0.04-0.28c0.01-0.06,0.05-0.15,0.11-0.13c0.05,0.02,0.17,0.06,0.19,0.05
			c0.07-0.05,0.18,0.04,0.26-0.01c0.03-0.02,0.05-0.06,0.09-0.06c0.03,0,0.05,0.01,0.07,0.03c0.05,0.04,0.11,0.08,0.17,0.09
			c0.06,0.02,0.13,0,0.18-0.05c0.01-0.01,0.02-0.02,0.03-0.03c0.02,0,0.03,0,0.05,0l0.2,0.05c0.06-0.21,0.02-0.44-0.1-0.62
			c-0.08-0.11-0.18-0.2-0.29-0.28c-0.12-0.09-0.25-0.18-0.38-0.26c-0.14-0.1-0.29-0.16-0.46-0.2c-0.17-0.03-0.35,0.02-0.45,0.15
			c-0.05-0.04-0.09-0.09-0.1-0.14c-0.04,0.04-0.05,0.11-0.01,0.15c0,0,0.01,0.01,0.01,0.01l-0.17-0.11c-0.05,0.05,0.04,0.14,0,0.19
			c-0.01,0.01-0.03,0.02-0.04,0.03c-0.09,0.04-0.17,0.09-0.24,0.15c-0.09,0.1-0.15,0.22-0.19,0.35c-0.1,0.28-0.17,0.61-0.03,0.87
			c0.02,0.03,0.23,0.53,0.25,0.55c0.09,0.07,0.03-0.09,0.1,0c0.05,0.07,0.04-0.21,0.12-0.14c0.06,0.05,0.15,0.05,0.21,0.01
			c0.03-0.02,0.02-0.15,0-0.26c-0.01-0.07,0.04-0.14,0.11-0.16c0.02,0,0.03,0,0.05,0C-961.33,2.04-961.23,2.06-961.23,2.05z"/>
		<path id="Path_311" opacity="0.2" fill="#010202" enable-background="new    " d="M-959.28,7.52l0.42,3.49h-0.27L-959.28,7.52z"/>
		<path id="Path_312" opacity="0.2" fill="#010202" enable-background="new    " d="M-963.73,6.17l-0.21,1.34l0.41-1.34
			C-963.54,6.17-963.73,6.17-963.73,6.17z"/>
	</g>
</g>
</svg>
