<?xml version="1.0" encoding="utf-8"?>
<!-- Generator: Adobe Illustrator 26.0.1, SVG Export Plug-In . SVG Version: 6.00 Build 0)  -->
<svg version="1.1" id="Livello_1" xmlns="http://www.w3.org/2000/svg" xmlns:xlink="http://www.w3.org/1999/xlink" x="0px" y="0px"
	 viewBox="0 0 33.76 25.04" enable-background="new 0 0 33.76 25.04" xml:space="preserve">
<g id="Group_243" transform="translate(-118.185 -70.111)">
	<path id="Path_313" fill="#067A9A" d="M155.78,81.11c0,3.77-2.07,7.24-5.39,9.05c-0.09,0.05-0.19,0.1-0.28,0.15
		c-0.35,0.18-0.71,0.33-1.08,0.47c-0.15,0.05-0.29,0.11-0.44,0.15c-0.01,0-0.03,0.01-0.04,0.01c-2.96,0.94-6.18,0.5-8.79-1.2
		c-0.17-0.11-0.34-0.23-0.51-0.35c-0.09-0.07-0.19-0.14-0.28-0.21c-0.26-0.2-0.5-0.42-0.74-0.64c-2.03-1.94-3.17-4.62-3.17-7.42
		c0-5.69,4.63-10.31,10.35-10.31C151.15,70.8,155.78,75.42,155.78,81.11z"/>
	<path id="Path_314" fill="#262626" d="M147.93,85.93l-0.23,0.88l0.89,4.16c-2.38,0.75-4.95,0.62-7.25-0.37l0.69-2.9l0.02-1.57
		l0.08-5.19l0.02-0.01c0,0,0,0,0,0l1.76-0.91l3.04-0.08l2.27,1.11l-0.02,0.06L147.93,85.93z"/>
	<path id="Path_315" fill="#F6B6B8" d="M149.14,93.51c-0.26-0.31-0.22-0.78,0.09-1.05c0.03-0.03,0.07-0.05,0.11-0.08l-0.49-2.59
		l1.27,0.53l0.27,2.38c0.18,0.37,0.03,0.82-0.34,1C149.74,93.86,149.36,93.78,149.14,93.51L149.14,93.51z"/>
	<path id="Path_316" fill="#262626" d="M148.73,81.13l0.32-0.11c0,0,1.03,0.66,0.93,2.26c0,0,0.04,0.83,0,1.38
		c-0.04,0.63,0.52,6.91,0.52,6.91h-1.84l-0.79-5.68L148.73,81.13z"/>
	<path id="Path_317" fill="#F6B6B8" d="M147.7,77.18c0,1.16-0.94,2.11-2.11,2.11s-2.11-0.94-2.11-2.11s0.94-2.11,2.11-2.11l0,0
		c1.16,0,2.11,0.94,2.11,2.1V77.18z"/>
	<path id="Path_318" fill="#0A0C0D" d="M143.49,74.37c0.25-0.53,0.72-0.43,1.14-0.25c0.53-0.12,1.03-0.47,1.6-0.26
		c0.56,0.82,2.45,0.58,2.05,1.91c0,0.32,0.6,0.13,0.49,0.66c0.32,1-1.15,2.91-1.99,2.51c0.21-0.38,0.68-1.25-0.04-1.33
		c-1.55,1.44-0.16-2.75-2.11-1.53C144,76.66,143.12,74.96,143.49,74.37z"/>
	<path id="Path_319" fill="#F9F9F9" d="M146.72,91.19l-3.36-0.67l0.86-4.36c1.19,0.45,2.31,0.67,3.36,0.67
		C146.67,88.18,146.25,89.63,146.72,91.19z"/>
	<path id="Path_320" fill="#3DC0F0" d="M146.24,91.44l-3.36-0.67c-0.28-1.97-0.03-3.46,0.86-4.36c1.19,0.45,2.31,0.67,3.36,0.67
		C146.54,88.47,146.25,89.95,146.24,91.44z"/>
	<path id="Path_321" fill="#F6B6B8" d="M144.02,90.23c-0.05-0.41-0.42-0.7-0.83-0.65c-0.04,0.01-0.09,0.01-0.13,0.03l-1.56-2.13
		l-0.48,1.29l1.56,1.82c0.15,0.39,0.58,0.58,0.96,0.43C143.87,90.9,144.06,90.57,144.02,90.23L144.02,90.23z"/>
	<path id="Path_322" fill="#262626" d="M142.62,81.08l-0.28-0.19c0,0-1.68,0.16-2.03,1.72c0,0-0.25,0.94-0.37,1.48
		c-0.06,0.28-0.86,2.96-0.86,2.96l2.71,2.96l0.74-1.11l-0.74-1.85L142.62,81.08z"/>
	<rect id="Rectangle_212" x="119.28" y="76.32" fill="#3DC0F0" width="1.39" height="1.22"/>
	<rect id="Rectangle_213" x="122.26" y="81.2" fill="#3DC0F0" width="1.39" height="1.22"/>
	<rect id="Rectangle_214" x="124.42" y="89.53" fill="#3DC0F0" width="1.39" height="1.22"/>
	<path id="Path_323" fill="#999999" d="M124.43,73.53c-0.09,0-0.16,0.07-0.16,0.16s0.07,0.16,0.16,0.16h11.32
		c0.09,0,0.16-0.07,0.16-0.16s-0.07-0.16-0.16-0.16H124.43z"/>
	<path id="Path_324" fill="#999999" d="M124.43,74.47c-0.09,0-0.16,0.07-0.16,0.15s0.07,0.16,0.15,0.16l0,0h7.16
		c0.09,0,0.16-0.07,0.16-0.16s-0.07-0.16-0.16-0.16H124.43z"/>
	<path id="Path_325" fill="#999999" d="M122.96,84.62c-0.09,0-0.16,0.07-0.16,0.16s0.07,0.16,0.16,0.16l0,0h11.32
		c0.09,0,0.16-0.07,0.16-0.16s-0.07-0.16-0.16-0.16H122.96z"/>
	<path id="Path_326" fill="#999999" d="M122.96,85.55c-0.09,0-0.16,0.07-0.16,0.15c0,0.09,0.07,0.16,0.15,0.16h7.16
		c0.09,0,0.16-0.07,0.16-0.16c0-0.09-0.07-0.16-0.16-0.16H122.96z"/>
	<path id="Path_327" fill="#999999" d="M129.36,92.54c-0.09,0-0.15,0.07-0.15,0.16c0,0.08,0.07,0.15,0.15,0.15h11.32
		c0.09,0,0.16-0.07,0.16-0.16s-0.07-0.16-0.16-0.16l0,0H129.36z"/>
	<path id="Path_328" fill="#999999" d="M129.36,93.47c-0.09,0-0.15,0.07-0.15,0.16c0,0.08,0.07,0.15,0.15,0.15h7.16
		c0.09,0,0.16-0.07,0.16-0.16c0-0.09-0.07-0.16-0.16-0.16H129.36z"/>
	<path id="Path_329" fill="#4E4D4D" d="M119.93,76.95c0.67-0.15,1.26-0.56,1.62-1.14c0.1-0.16,0.18-0.34,0.25-0.52
		c0.01-0.03-0.01-0.07-0.04-0.08c-0.03-0.01-0.06,0.01-0.08,0.04c-0.21,0.62-0.66,1.13-1.25,1.41c-0.16,0.08-0.34,0.14-0.52,0.18
		C119.83,76.84,119.86,76.96,119.93,76.95L119.93,76.95z"/>
	<path id="Path_330" fill="#4E4D4D" d="M121.13,75.53l0.66-0.37c0.01-0.01,0.04-0.03,0.05-0.02c-0.01,0,0,0,0,0.01
		c0,0.01,0,0.02,0,0.03c0,0.06,0,0.13,0.01,0.19l0.01,0.37c0,0.08,0.12,0.09,0.12,0.01l-0.01-0.44c0-0.1,0.02-0.32-0.14-0.3
		c-0.06,0.01-0.11,0.05-0.16,0.08l-0.2,0.11l-0.39,0.22C121.01,75.46,121.06,75.57,121.13,75.53L121.13,75.53z"/>
	<path id="Path_331" fill="#4E4D4D" d="M122.97,81.8c-0.66,0.17-1.23,0.61-1.57,1.21c-0.1,0.17-0.17,0.35-0.22,0.53
		c-0.01,0.03,0.01,0.07,0.05,0.07c0.03,0.01,0.06-0.01,0.07-0.04c0.19-0.63,0.62-1.15,1.2-1.46c0.16-0.09,0.33-0.15,0.51-0.19
		C123.08,81.9,123.04,81.79,122.97,81.8L122.97,81.8z"/>
	<path id="Path_332" fill="#4E4D4D" d="M121.83,83.28l-0.64,0.39c-0.01,0.01-0.02,0.01-0.03,0.02s-0.02,0.01-0.02,0.01
		c-0.01-0.01-0.01-0.05-0.01-0.06l-0.01-0.18l-0.02-0.37c-0.01-0.08-0.13-0.08-0.12,0l0.03,0.43c0.01,0.1-0.01,0.3,0.14,0.3
		c0.07,0,0.13-0.06,0.19-0.09l0.18-0.11l0.38-0.23C121.96,83.35,121.9,83.24,121.83,83.28L121.83,83.28z"/>
	<path id="Path_333" fill="#4E4D4D" d="M125.05,90.08c0.63,0.17,1.17,0.58,1.5,1.15c0.09,0.16,0.16,0.33,0.21,0.5
		c0.01,0.03,0.04,0.05,0.08,0.04c0.03-0.01,0.05-0.04,0.04-0.07c-0.2-0.66-0.65-1.21-1.26-1.53c-0.17-0.09-0.35-0.16-0.54-0.21
		C125,89.94,124.97,90.06,125.05,90.08L125.05,90.08z"/>
	<path id="Path_334" fill="#4E4D4D" d="M126.15,91.55l0.38,0.23l0.18,0.11c0.06,0.03,0.12,0.09,0.19,0.09
		c0.15,0.01,0.13-0.2,0.14-0.3l0.03-0.43c0.01-0.08-0.12-0.08-0.12,0l-0.02,0.37l-0.01,0.18c0,0.01,0,0.05-0.01,0.06
		c0.01-0.01,0,0-0.01-0.01c-0.01-0.01-0.03-0.02-0.04-0.02l-0.64-0.39C126.14,91.4,126.08,91.5,126.15,91.55L126.15,91.55z"/>
	<circle id="Ellipse_67" fill="#3DC0F0" cx="122.06" cy="74.1" r="0.57"/>
	<circle id="Ellipse_68" fill="#3DC0F0" cx="121.08" cy="85.24" r="0.57"/>
	<circle id="Ellipse_69" fill="#3DC0F0" cx="127.21" cy="93.15" r="0.57"/>
</g>
</svg>
