<?xml version="1.0" encoding="utf-8"?>
<!-- Generator: Adobe Illustrator 26.0.1, SVG Export Plug-In . SVG Version: 6.00 Build 0)  -->
<svg version="1.1" id="Livello_1" xmlns="http://www.w3.org/2000/svg" xmlns:xlink="http://www.w3.org/1999/xlink" x="0px" y="0px"
	 viewBox="0 0 39.93 37.78" enable-background="new 0 0 39.93 37.78" xml:space="preserve">
<g>
	<defs>
		<rect id="SVGID_00000077299452876227373930000007440578517959193996_" x="2.46" y="0.33" width="35" height="36.87"/>
	</defs>
	<clipPath id="SVGID_00000001626151454100473280000010389885468502827197_">
		<use xlink:href="#SVGID_00000077299452876227373930000007440578517959193996_"  overflow="visible"/>
	</clipPath>
	<g id="Group_231" clip-path="url(#SVGID_00000001626151454100473280000010389885468502827197_)">
		<path id="Path_143" fill="#0C0C0C" d="M19.96,35.41c9.67,0,17.5,0.4,17.5,0.89c0,0.49-7.83,0.89-17.5,0.89s-17.5-0.4-17.5-0.89
			C2.46,35.81,10.3,35.41,19.96,35.41"/>
		<path id="Path_144" fill="#F6B6B8" d="M34.76,23.23v0.22c0,0,0.39,1.39-0.09,1.39s-0.65-1.34-0.65-1.34v-0.26L34.76,23.23z"/>
		<path id="Path_145" fill="#F6B6B8" d="M26.1,18.29l0.09-0.35c0,0,0.48-1.08,0.87-0.87c0.39,0.22-0.17,1.04-0.17,1.04l-0.09,0.22
			L26.1,18.29z"/>
		<path id="Path_146" fill="#F6B6B8" d="M28.87,33.8l0.09,0.74l0.82,0.13v-0.95L28.87,33.8z"/>
		<path id="Path_147" fill="#F6B6B8" d="M33.42,33.58l0.09,1.08l0.95-0.13l-0.17-1.04L33.42,33.58z"/>
		<path id="Path_148" fill="#0A0C0D" d="M28.48,25.35l-0.17,0.04l0.48,4.59v4.12l1.21-0.22l0.61-7.23l1.86,3.55l0.91,3.6l1.43-0.26
			l-1.17-4.51l-0.78-4.29L28.48,25.35z"/>
		<path id="Path_149" fill="#4E4D4D" d="M29.34,34.27c0,0-0.39-0.26-0.52-0.09c-0.13,0.17-0.69,1.04-0.69,1.04s-1.39,1.43,0,1.39
			c0,0,0.91,0,1.08-0.52c0,0,0.04-0.26,0.35-0.26s0.65-0.3,0.65-0.48s-0.3-1.05-0.43-0.91C29.65,34.58,29.34,34.27,29.34,34.27"/>
		<path id="Path_150" fill="#4E4D4D" d="M34,34.27c0,0,0.39-0.26,0.52-0.09c0.13,0.17,0.69,1.04,0.69,1.04s1.39,1.43,0,1.39
			c0,0-0.91,0-1.08-0.52c0,0-0.04-0.26-0.35-0.26c-0.3,0-0.65-0.3-0.65-0.48s0.3-1.05,0.43-0.91C33.69,34.58,33.99,34.27,34,34.27"
			/>
		<path id="Path_151" fill="#F6B6B8" d="M28.59,15.78c0.63,0,1.14,0.51,1.14,1.14c0,0.63-0.51,1.14-1.14,1.14
			c-0.63,0-1.14-0.51-1.14-1.14C27.44,16.29,27.95,15.78,28.59,15.78"/>
		<path id="Path_152" fill="#F6B6B8" d="M28.5,17.83l0.61,0.74l1.08-0.91l-0.78-0.61L28.5,17.83z"/>
		<path id="Path_153" fill="#067A9A" d="M28.82,18.59l0.04-0.32l1.22-0.7l1.65-0.16c0.21-0.02,0.4,0.14,0.43,0.35v0l0.61,6.5
			l0.22,0.56c0,0-3.81,2.17-4.68,0.56l0.65-3.38l-1.34-2.56L28.82,18.59z"/>
		<path id="Path_154" fill="#067A9A" d="M31.77,17.51c0.03,0,0.05-0.01,0.08-0.02c0.16-0.06,0.35,0,0.45,0.14l1.94,2.66l0.74,3.08
			h-1.04l-0.69-2.08l-1.13-1.47L31.77,17.51z"/>
		<path id="Path_155" fill="#067A9A" d="M27.96,19.37l-0.35,0.09l-1.04,0.91l0.35-2.08l-0.87-0.17l-0.67,3.49l0.48,0.48l2.71-1.1
			L27.96,19.37z"/>
		<path id="Path_156" fill="#0A0C0D" d="M29.04,16.92c0,0-0.47-0.69-0.74-0.46c-0.27,0.23-1.02,0.67-1.18,0.32s0.45-1,0.91-1.15
			c0.46-0.15,1.27-0.36,1.52,0.32c0.15,0.43,0.2,0.89,0.15,1.35L29.04,16.92z"/>
		<path id="Path_157" fill="#F6B6B8" d="M28.94,16.63c0.06-0.02,0.15,0.05,0.19,0.17c0.04,0.12,0.02,0.23-0.04,0.25
			S28.94,17,28.9,16.88S28.87,16.66,28.94,16.63"/>
		<path id="Path_158" fill="#022733" d="M23.74,8.92h-0.2V3.48c0-1.74-1.41-3.15-3.15-3.15c0,0,0,0,0,0H8.85
			c-1.74,0-3.15,1.41-3.15,3.15v29.88c0,1.74,1.41,3.15,3.15,3.15h11.54c1.74,0,3.15-1.41,3.15-3.15c0,0,0,0,0,0V12.8h0.2V8.92z"/>
		<path id="Path_159" fill="#0C0C0C" d="M20.52,1.15h-1.51c0.23,0.57-0.04,1.22-0.61,1.46c-0.13,0.05-0.28,0.08-0.42,0.08h-6.61
			c-0.62,0-1.12-0.5-1.12-1.12c0-0.14,0.03-0.29,0.08-0.42H8.92c-1.3,0-2.35,1.05-2.35,2.35v29.83c0,1.3,1.05,2.35,2.35,2.35h11.59
			c1.3,0,2.35-1.05,2.35-2.35V3.5C22.87,2.2,21.82,1.15,20.52,1.15C20.52,1.15,20.52,1.15,20.52,1.15"/>
		<rect id="Rectangle_122" x="12.22" y="9.16" fill="#067A9A" width="4.11" height="0.38"/>
		<rect id="Rectangle_123" x="12.22" y="10.48" fill="#F9F9F9" width="7.16" height="0.38"/>
		<rect id="Rectangle_124" x="12.22" y="11.8" fill="#F9F9F9" width="7.16" height="0.38"/>
		<rect id="Rectangle_125" x="8.32" y="9.17" fill="#3DC0F0" width="3.05" height="3.05"/>
		<rect id="Rectangle_126" x="12.22" y="17.18" fill="#067A9A" width="4.11" height="0.38"/>
		<rect id="Rectangle_127" x="12.22" y="18.5" fill="#F9F9F9" width="7.16" height="0.38"/>
		<rect id="Rectangle_128" x="12.22" y="19.82" fill="#F9F9F9" width="7.16" height="0.38"/>
		<rect id="Rectangle_129" x="8.32" y="17.18" fill="#3DC0F0" width="3.05" height="3.05"/>
		<rect id="Rectangle_130" x="12.22" y="25.19" fill="#067A9A" width="4.11" height="0.38"/>
		<rect id="Rectangle_131" x="12.22" y="26.51" fill="#F9F9F9" width="7.16" height="0.38"/>
		<rect id="Rectangle_132" x="12.22" y="27.83" fill="#F9F9F9" width="7.16" height="0.38"/>
		<rect id="Rectangle_133" x="8.32" y="25.2" fill="#3DC0F0" width="3.05" height="3.05"/>
	</g>
</g>
</svg>
