<?xml version="1.0" encoding="utf-8"?>
<!-- Generator: Adobe Illustrator 26.0.1, SVG Export Plug-In . SVG Version: 6.00 Build 0)  -->
<svg version="1.1" id="Livello_1" xmlns="http://www.w3.org/2000/svg" xmlns:xlink="http://www.w3.org/1999/xlink" x="0px" y="0px"
	 viewBox="0 0 28.54 24.67" enable-background="new 0 0 28.54 24.67" xml:space="preserve">
<polyline fill="#262626" points="38.62,1.4 38.62,11.02 7.31,16.09 7.31,1.4 "/>
<ellipse id="Ellipse_40" fill="#999999" cx="21.51" cy="23.13" rx="20.84" ry="1.2"/>
<rect id="Rectangle_193" x="7.29" y="0.41" fill="#999999" width="31.33" height="1"/>
<circle id="Ellipse_41" fill="#3DC0F0" cx="8.15" cy="0.89" r="0.26"/>
<circle id="Ellipse_42" fill="#3DC0F0" cx="8.98" cy="0.89" r="0.26"/>
<circle id="Ellipse_43" fill="#3DC0F0" cx="9.82" cy="0.89" r="0.26"/>
<path id="Path_248" fill="#067A9A" d="M7.31,16.09l-0.02,0.02v6.72h31.33V11.02l-0.37,0.03L7.31,16.09z"/>
<rect id="Rectangle_194" x="9.57" y="7.05" fill="#4E4D4D" width="8.75" height="0.35"/>
<rect id="Rectangle_195" x="9.57" y="7.82" fill="#4E4D4D" width="8.75" height="0.35"/>
<rect id="Rectangle_196" x="9.57" y="8.6" fill="#4E4D4D" width="2.96" height="0.35"/>
<rect id="Rectangle_197" x="27.39" y="16.81" fill="#FFFFFF" width="8.75" height="0.35"/>
<rect id="Rectangle_198" x="27.39" y="17.58" fill="#FFFFFF" width="8.75" height="0.35"/>
<rect id="Rectangle_199" x="27.4" y="18.36" fill="#FFFFFF" width="2.96" height="0.35"/>
<circle id="Ellipse_44" fill="#F9F9F9" cx="21.97" cy="22.16" r="0.34"/>
<circle id="Ellipse_45" fill="#F9F9F9" cx="22.96" cy="22.19" r="0.34"/>
<circle id="Ellipse_46" fill="#F9F9F9" cx="23.96" cy="22.23" r="0.34"/>
<circle id="Ellipse_47" fill="#262626" cx="22.97" cy="22.19" r="0.28"/>
<rect id="Rectangle_200" x="12.45" y="11.07" fill="#3DC0F0" width="2.96" height="0.68"/>
<circle id="Ellipse_49" opacity="0.3" fill="#067A9A" enable-background="new    " cx="13.95" cy="11.42" r="1.37"/>
<circle id="Ellipse_50" fill="#3DC0F0" cx="13.95" cy="11.42" r="0.95"/>
<rect id="Rectangle_202" x="3.98" y="3.61" transform="matrix(0.0388 -0.9992 0.9992 0.0388 0.3194 8.3976)" fill="#575DA7" width="1.09" height="0.84"/>
<path id="Path_249" fill="#F6B7B9" d="M7.93,7.25c0,0,1.17-0.56,1.15-0.08S7.9,7.97,7.9,7.97L7.93,7.25z"/>
<path id="Path_250" fill="#022733" d="M7.29,11.27c0,0,0.55,1.35,0.75,2.32c0.2,0.97,0.51,2.31,0.11,3.26
	c-0.4,0.95-1.53,3.74-1.54,4.04s0.1,0.61-0.14,0.6c-0.24-0.01-1.55-0.42-1.61-0.61c-0.05-0.18,0.45-0.65,0.45-0.65l1.24-3.88
	l-1.29-2.52l-0.93,3.77l-0.18,4.7c0,0-0.89-0.28-1.02-0.04c0,0-0.4-0.56-0.45-0.8c-0.05-0.24,0.19-4.88,0.19-4.88
	S2.04,11.3,2.7,11.33C3.36,11.36,5.96,9.77,7.29,11.27z"/>
<path id="Path_251" fill="#0A0C0D" d="M6.48,21.25c0,0,0.61,1.35,0.67,1.41c0.06,0.06,0.46,0.68,0.16,0.67S6.29,23,5.77,22.49
	s-1.21-1.37-1.15-1.43c0.06-0.06,0.49-0.22,0.49-0.22L6.48,21.25z"/>
<path id="Path_252" fill="#0A0C0D" d="M4.04,22c0,0,0.04,0.6,0.15,0.85c0.11,0.25,0.1,0.61-0.2,0.6c-0.3-0.01-1.08-0.16-1.08-0.16
	s-0.05-0.36,0.02-0.42c0.06-0.06,0.33-0.71,0.22-0.9S4.04,22,4.04,22z"/>
<path id="Path_253" fill="#F6B7B9" d="M3.59,2.46c0,0-0.64,1-0.89,1.23s0.45,0.74,0.45,0.74L4.41,4.6c0,0-0.02-1.15,0.05-1.27
	C4.53,3.22,3.59,2.46,3.59,2.46z"/>
<path id="Path_254" fill="#3DC0F0" d="M4.69,3.77c0,0-0.26,0.47-0.5,0.46C3.94,4.22,2.7,3.69,2.64,3.51
	C2.59,3.32,2.23,4.82,2.23,4.82l3.05,5.37l0.74-0.51L5.67,6.52l-0.3-1.7L4.69,3.77z"/>
<path id="Path_255" fill="#262626" d="M2.53,8.57c0.12,0.25,0.2,0.52,0.19,0.79c0,0.01,0,0.02,0,0.04c-0.03,0.56-0.23,1.2-0.31,1.67
	c-0.05,0.34-0.04,0.58,0.16,0.64c0.48,0.14-0.07,0.24,1.78,0.85s2.17,0.08,2.17-0.04c0-0.12-0.26-1.04-0.2-1.09s0.88,0.76,1.12,0.65
	c0.25-0.11,0.03-0.72,0.03-0.72s-0.55-1.29-0.54-1.59S6.09,8.05,6.09,8.05L5.51,4.28c0,0-0.22-0.49-0.52-0.56
	c-0.3-0.07-0.55,0.1-0.55,0.1l0.5,1.11l0.53,1.95L5.38,7.6c0,0-0.61-1.29-1.02-1.79S3.1,4.13,3.1,4.13S2.9,3.45,3.05,3.25
	c0.15-0.2-0.63-0.23-0.97,0.6c-0.18,0.44-0.46,1.1-0.64,1.71C1.28,6.1,1.21,6.61,1.37,6.9C1.61,7.34,2.22,7.92,2.53,8.57z"/>
<path id="Path_256" opacity="0.1" fill="#010202" enable-background="new    " d="M1.37,6.88C1.61,7.32,2.22,7.9,2.53,8.55
	c0.08-0.29,0.18-0.6,0.18-0.6s0.38-2.04-0.75-2.56C1.78,5.37,1.59,5.43,1.44,5.54C1.28,6.08,1.21,6.59,1.37,6.88z"/>
<path id="Path_257" fill="#262626" d="M5.84,6.75l0.95,0.28l1.33,0.05l0.14,1.15L6.07,8.38C6.07,8.38,5.53,6.85,5.84,6.75z"/>
<path id="Path_258" fill="#F6B7B9" d="M4.28,10.61c0,0,1.28,0.21,0.99,0.6s-1.42-0.02-1.42-0.02L4.28,10.61z"/>
<path id="Path_259" opacity="0.1" fill="#010202" enable-background="new    " d="M2.72,9.37c-0.03,0.56-0.23,1.2-0.31,1.67
	c0.41,0.39,0.79,0.72,0.94,0.73c0.3,0.01,0.79-0.03,0.96,0.04c0.18,0.07,0.28-1.08,0.28-1.08s-0.11-0.37-0.58-0.57
	C3.69,10.03,3.08,9.66,2.72,9.37z"/>
<path id="Path_260" fill="#262626" d="M1.98,5.03c0,0-1.02-0.16-0.96,1.53c0.06,1.69-0.11,2.77,0.3,3.09
	c0.41,0.32,1.74,1.76,2.04,1.77s0.79-0.03,0.96,0.04c0.18,0.07,0.28-1.08,0.28-1.08S4.5,10.01,4.03,9.82
	c-0.48-0.2-1.59-0.91-1.59-1.15c0.01-0.24,0.28-1.08,0.28-1.08S3.11,5.55,1.98,5.03z"/>
<circle id="Ellipse_57" fill="#F6B7B9" cx="4.49" cy="2.61" r="1.33"/>
<path id="Path_261" fill="#0A0C0D" d="M5.38,0.71c0.03,0.03,0.07,0.05,0.11,0.06C5.54,0.78,5.58,0.75,5.59,0.7
	c0.03,0.06,0.06,0.13,0.13,0.16C5.77,0.9,5.87,0.87,5.88,0.8c0.01,0.05,0.03,0.1,0.07,0.14c0.04,0.04,0.11,0.05,0.14,0
	C6.06,1.1,6.08,1.25,6.07,1.4C6.06,1.55,6.02,1.71,5.91,1.81C5.74,1.95,5.49,1.92,5.27,1.89C5.24,1.88,5.21,1.89,5.17,1.9
	C5.09,1.93,5.1,2.04,5.1,2.13C5.08,2.46,4.84,2.72,4.52,2.76C4.43,2.77,4.34,2.75,4.27,2.7C4.21,2.65,4.18,2.56,4.11,2.52
	C3.99,2.46,3.85,2.55,3.77,2.65S3.6,2.88,3.47,2.9C3.3,2.92,3.16,2.75,3.1,2.58C2.92,2.12,2.93,1.61,3.14,1.16
	C3.5,0.37,4.73,0.25,5.38,0.71z"/>
</svg>
