<?xml version="1.0" encoding="utf-8"?>
<!-- Generator: Adobe Illustrator 26.0.1, SVG Export Plug-In . SVG Version: 6.00 Build 0)  -->
<svg version="1.1" id="Livello_1" xmlns="http://www.w3.org/2000/svg" xmlns:xlink="http://www.w3.org/1999/xlink" x="0px" y="0px"
	 viewBox="0 0 30 30" enable-background="new 0 0 30 30" xml:space="preserve">
<g id="Group_241" transform="translate(0)">
	<path id="Path_264" fill="#067A9A" d="M31.22,26.72c1.05-0.76,1.77-2.07,1.54-3.35c-0.92,1.06-2.19,1.77-3.58,1.99
		c-0.54,0.08-1.14,0.12-1.51,0.52c-0.23,0.25-0.31,0.61-0.3,0.94c0.01,0.34,0.11,0.67,0.21,0.99l-0.02,0.08
		C28.85,27.78,30.17,27.48,31.22,26.72z"/>
	<path id="Path_265" fill="#FFFFFF" d="M32.73,23.37c-0.35,1.01-1.02,1.89-1.9,2.5c-0.19,0.14-0.39,0.24-0.61,0.31
		c-0.22,0.06-0.45,0.07-0.66,0.01c-0.2-0.05-0.41-0.12-0.62-0.12c-0.22,0.01-0.43,0.1-0.57,0.27c-0.18,0.2-0.28,0.46-0.36,0.71
		c-0.1,0.28-0.19,0.57-0.4,0.79c-0.03,0.03,0.02,0.06,0.04,0.04c0.37-0.37,0.39-0.94,0.67-1.37c0.13-0.2,0.33-0.36,0.57-0.38
		c0.22-0.02,0.43,0.06,0.63,0.11c0.21,0.06,0.43,0.06,0.65,0.01c0.22-0.06,0.43-0.16,0.62-0.29c0.43-0.29,0.82-0.64,1.14-1.05
		c0.37-0.46,0.66-0.98,0.86-1.54C32.8,23.35,32.74,23.34,32.73,23.37z"/>
	<path id="Path_267" fill="#FFFFFF" d="M29.66,26.23c0.01-0.37,0.16-0.72,0.42-0.99c0.03-0.03-0.02-0.06-0.04-0.04
		c-0.27,0.28-0.43,0.64-0.44,1.03C29.6,26.27,29.66,26.27,29.66,26.23L29.66,26.23z"/>
	<path id="Path_269" fill="#067A9A" d="M28.97,21.27c0,0.02,0,0.05-0.01,0.07c-0.02,0.31-0.07,0.61-0.14,0.91
		c-0.01,0.02-0.01,0.05-0.02,0.07c-0.18,0.72-0.5,1.4-0.93,2.01c-0.17,0.24-0.36,0.47-0.57,0.68c-0.21,0.22-0.96,0.81-1.24,1.36
		c-0.09,0.17-0.24,0.7,0.08,1.14c0.25,0.36,0.54,0.34,0.68,0.49c0.14,0.07-0.01-0.02-0.02,0l0.69-0.08c0,0,0.01,0.01,0.01,0.01
		l0.04,0.08c0.01-0.01,0.02-0.02,0.03-0.03c0.01-0.01,0.01-0.01,0.02-0.02c0,0,0.01-0.01,0.01-0.01c0,0,0,0,0,0
		c0,0,0.01-0.01,0.01-0.01c0.07-0.06,0.13-0.12,0.19-0.18c0,0,0,0,0,0c0.49-0.47,0.95-0.98,1.31-1.55c0.01-0.02,0.02-0.03,0.03-0.05
		c0.16-0.26,0.3-0.53,0.42-0.81c0.06-0.15,0.12-0.31,0.17-0.47c0.12-0.41,0.18-0.84,0.17-1.27c-0.02-0.86-0.31-1.7-0.92-2.29
		C29,21.3,28.99,21.29,28.97,21.27z"/>
	<path id="Path_270" fill="#F1F1F1" d="M28.98,21.41c0.33,1.02,0.32,2.12-0.01,3.14c-0.07,0.22-0.17,0.43-0.3,0.62
		c-0.14,0.18-0.32,0.32-0.52,0.41c-0.19,0.08-0.4,0.15-0.57,0.28c-0.17,0.14-0.28,0.34-0.29,0.56c-0.02,0.27,0.05,0.53,0.14,0.79
		c0.09,0.28,0.19,0.48,0.15,0.79c0,0.04,0.11,0.04,0.12,0c0.07-0.52-0.32-0.89-0.35-1.4c-0.01-0.24,0.04-0.48,0.23-0.65
		c0.16-0.14,0.37-0.21,0.57-0.29c0.2-0.08,0.38-0.21,0.53-0.38c0.14-0.18,0.25-0.39,0.32-0.6c0.17-0.49,0.27-1,0.28-1.52
		c0.02-0.59-0.06-1.18-0.25-1.75C29.02,21.35,28.97,21.38,28.98,21.41z"/>
	<path id="Path_271" fill="#FFFFFF" d="M29.03,24.05c0.37,0.07,0.73-0.14,0.86-0.5c0.01-0.03-0.04-0.06-0.05-0.02
		c-0.12,0.33-0.46,0.52-0.8,0.46C29,23.99,29,24.04,29.03,24.05L29.03,24.05z"/>
	<path id="Path_272" fill="#FFFFFF" d="M28.18,25.37c-0.21-0.3-0.31-0.68-0.26-1.04c0-0.04-0.05-0.04-0.06-0.01
		c-0.05,0.38,0.05,0.77,0.27,1.09C28.16,25.43,28.2,25.4,28.18,25.37z"/>
	<path id="Path_273" fill="#FFFFFF" d="M29.16,22.46c-0.15,0-0.28-0.07-0.37-0.19c-0.02-0.03-0.06,0.01-0.04,0.04
		c0.09,0.13,0.24,0.21,0.41,0.21c0.02,0,0.03-0.01,0.03-0.03C29.19,22.47,29.17,22.46,29.16,22.46z"/>
	<path id="Path_274" fill="#F9F9F9" d="M16.74,2.75c0.13-0.12,0.27-0.23,0.41-0.34l0.05,0.07c-0.14,0.1-0.28,0.22-0.41,0.33
		L16.74,2.75z M17.59,2.12c0.15-0.09,0.3-0.18,0.46-0.26l0.04,0.08c-0.15,0.08-0.31,0.17-0.45,0.26L17.59,2.12z M18.53,1.63
		c0.16-0.07,0.33-0.13,0.5-0.18l0.03,0.08c-0.17,0.05-0.33,0.11-0.49,0.18L18.53,1.63z M19.55,1.39l-0.02-0.08
		c0.17-0.04,0.35-0.07,0.52-0.1l0.01,0.09C19.9,1.32,19.72,1.35,19.55,1.39z M20.59,1.24l-0.01-0.09c0.18-0.01,0.35-0.02,0.53-0.01
		l0,0.09C20.93,1.22,20.76,1.22,20.59,1.24L20.59,1.24z M21.63,1.25l0.01-0.09c0.18,0.02,0.35,0.04,0.52,0.07l-0.02,0.08
		C21.98,1.3,21.8,1.27,21.63,1.25z M24.86,12.61c0.14-0.11,0.27-0.22,0.4-0.33l0.06,0.06c-0.13,0.12-0.27,0.23-0.41,0.34
		L24.86,12.61z M22.66,1.44l0.02-0.08c0.17,0.05,0.34,0.1,0.51,0.16L23.16,1.6C22.99,1.54,22.83,1.49,22.66,1.44L22.66,1.44z
		 M25.63,11.91c0.12-0.13,0.23-0.26,0.34-0.4l0.07,0.05c-0.11,0.14-0.23,0.27-0.35,0.4L25.63,11.91z M23.64,1.8l0.04-0.08
		c0.16,0.07,0.32,0.15,0.47,0.24l-0.04,0.08C23.96,1.95,23.8,1.87,23.64,1.8z M26.28,11.09c0.1-0.14,0.19-0.29,0.27-0.45l0.08,0.04
		c-0.09,0.15-0.18,0.31-0.28,0.45L26.28,11.09z M24.55,2.31l0.05-0.07c0.15,0.1,0.29,0.2,0.43,0.31l-0.05,0.07
		C24.84,2.51,24.7,2.41,24.55,2.31z M26.79,10.18c0.07-0.16,0.14-0.32,0.2-0.48l0.08,0.03c-0.06,0.17-0.13,0.33-0.2,0.49
		L26.79,10.18z M25.37,2.96l0.06-0.06c0.13,0.12,0.25,0.25,0.37,0.38l-0.06,0.06C25.62,3.21,25.49,3.08,25.37,2.96L25.37,2.96z
		 M27.14,9.19c0.04-0.17,0.08-0.34,0.11-0.51l0.08,0.02c-0.03,0.17-0.07,0.35-0.11,0.52L27.14,9.19z M26.06,3.74l0.07-0.05
		c0.11,0.14,0.21,0.29,0.3,0.43l-0.07,0.05C26.27,4.02,26.17,3.88,26.06,3.74z M27.32,8.16c0.02-0.17,0.03-0.35,0.03-0.52l0.09,0
		c0,0.18-0.01,0.35-0.03,0.53L27.32,8.16z M26.62,4.62l0.08-0.04c0.08,0.16,0.16,0.32,0.23,0.48l-0.08,0.03
		C26.78,4.93,26.7,4.77,26.62,4.62L26.62,4.62z M27.33,7.12c-0.01-0.17-0.03-0.35-0.06-0.52l0.09-0.01
		c0.03,0.17,0.05,0.35,0.06,0.53L27.33,7.12z M27.03,5.58l0.08-0.03c0.05,0.17,0.1,0.34,0.14,0.51l-0.08,0.02
		C27.13,5.92,27.08,5.75,27.03,5.58L27.03,5.58z"/>
	<path id="Path_276" fill="#F6B7B9" d="M29.98,15.22l-0.05-2.05l-1.15,0.08l0.23,2.03l0.2,2.89c-0.21,0.21-0.2,0.55,0.01,0.75
		c0.21,0.21,0.55,0.2,0.75-0.01c0.2-0.2,0.2-0.52,0.02-0.73H30L29.98,15.22z"/>
	<path id="Path_277" fill="#F6B7B9" d="M25.1,27.33h-0.71l-0.22-2.72h0.93L25.1,27.33z"/>
	<path id="Path_278" fill="#4E4D4D" d="M25.28,28.01h-2.27v-0.03c0-0.49,0.4-0.89,0.89-0.89c0,0,0,0,0,0l0,0h1.39L25.28,28.01z"/>
	<path id="Path_279" fill="#F6B7B9" d="M28.85,27.33h-0.71l-0.34-2.72h1.04L28.85,27.33z"/>
	<path id="Path_280" fill="#4E4D4D" d="M29.03,28.01h-2.27v-0.03c0-0.49,0.4-0.89,0.89-0.89c0,0,0,0,0,0l0,0h1.39L29.03,28.01z"/>
	<path id="Path_281" fill="#4E4D4D" d="M28.74,26.46L28.74,26.46c-0.01,0-0.01,0-0.02,0l-0.61-0.03c-0.13-0.01-0.24-0.11-0.26-0.24
		l-0.74-6.62c0-0.04-0.04-0.06-0.08-0.06c-0.02,0-0.04,0.01-0.05,0.03l-0.95,1.5c-0.17,0.27-0.28,0.57-0.32,0.88l-0.48,3.98
		c-0.02,0.14-0.14,0.24-0.27,0.24h-0.67c-0.15,0-0.27-0.12-0.28-0.26l-0.15-3.6c-0.02-0.5,0.04-1,0.2-1.48l1.45-3.71l0.01,0l3.49-1
		l0,10.13C29.01,26.34,28.89,26.46,28.74,26.46L28.74,26.46z"/>
	<path id="Path_283" fill="#067A9A" d="M29.15,12.35l0.49-0.17l0.85,1.97l-1.87,0.64L29.15,12.35z"/>
	<circle id="Ellipse_58" fill="#F6B7B9" cx="27.36" cy="9.91" r="1.07"/>
	<path id="Path_285" fill="#0A0C0D" d="M27.69,8.41c-0.18-0.03-0.36,0.02-0.55,0.03c-0.09,0-0.18-0.01-0.27,0
		c-0.09,0.01-0.18,0.04-0.23,0.11c-0.04,0.05-0.05,0.12-0.11,0.15c-0.04,0.03-0.09,0.03-0.14,0.05C26.32,8.81,26.32,8.93,26.26,9
		c-0.03,0.03-0.08,0.05-0.1,0.09c-0.01,0.03-0.02,0.05-0.02,0.08l-0.03,0.41c-0.01,0.04,0.01,0.08,0.04,0.1c0.01,0,0.02,0.01,0.03,0
		c0.07,0.01,0.16,0.01,0.21-0.05c0.05-0.07,0.01-0.21,0.1-0.23c0.07-0.02,0.13,0.08,0.21,0.08c0.06,0,0.1-0.05,0.14-0.1
		s0.1-0.09,0.15-0.06c0.04,0.03,0.05,0.09,0.08,0.12c0.05,0.06,0.14,0.04,0.21,0.01c0.07-0.03,0.14-0.07,0.21-0.06
		c0.1,0.02,0.15,0.14,0.25,0.17c0.14,0.04,0.3-0.13,0.43-0.06c0.06,0.03,0.09,0.1,0.1,0.17s0.01,0.14,0.03,0.21
		c0.02,0.07,0.08,0.13,0.15,0.13c0-0.05,0.01-0.1,0.03-0.14c0.02-0.03,0.05-0.06,0.07-0.09c0.06-0.11-0.01-0.25,0-0.38
		c0-0.03,0.01-0.06,0.01-0.1c0-0.09-0.06-0.16-0.12-0.23L28.39,9c-0.06-0.07-0.13-0.14-0.2-0.2c-0.06-0.04-0.11-0.08-0.17-0.13
		C27.91,8.57,27.84,8.44,27.69,8.41z"/>
	<path id="Path_286" fill="#0C0D0D" d="M4.25,18.42V4.84c0-0.12,0.1-0.22,0.22-0.22h19.48c0.12,0,0.22,0.1,0.22,0.22v13.58
		c0,0.12-0.1,0.22-0.22,0.22H4.47C4.34,18.65,4.25,18.55,4.25,18.42z"/>
	<path id="Path_287" fill="#262626" d="M4.47,18.79c-0.2,0-0.36-0.16-0.36-0.36V4.84c0-0.2,0.16-0.36,0.36-0.36h19.48
		c0.2,0,0.36,0.16,0.36,0.36v13.58c0,0.2-0.16,0.36-0.36,0.36L4.47,18.79z M4.39,18.42c0,0.04,0.04,0.08,0.08,0.08h19.48
		c0.04,0,0.08-0.04,0.08-0.08V4.84c0-0.04-0.04-0.08-0.08-0.08H4.47c-0.04,0-0.08,0.04-0.08,0.08V18.42z"/>
	<path id="feda1070-6288-4949-b833-330f4749d65f" fill="#999999" d="M20.54,7.71c0.1,0,0.18,0.08,0.18,0.18s-0.08,0.18-0.18,0.18
		c0,0,0,0,0,0h-4.43c-0.1,0-0.18-0.08-0.18-0.17c0-0.1,0.08-0.18,0.17-0.18l0,0L20.54,7.71L20.54,7.71z"/>
	<path id="feda1070-6288-4949-b833-330f4749d65f-2" fill="#999999" d="M20.54,8.95c0.1,0,0.18,0.08,0.18,0.18S20.64,9.3,20.54,9.3
		h-4.43c-0.1,0-0.18-0.08-0.18-0.17c0-0.1,0.08-0.18,0.17-0.18H20.54z"/>
	<path id="feda1070-6288-4949-b833-330f4749d65f-3" fill="#999999" d="M20.54,10.18c0.1,0,0.18,0.08,0.18,0.18s-0.08,0.18-0.18,0.18
		h-4.43c-0.1,0-0.18-0.08-0.18-0.17c0-0.1,0.08-0.18,0.17-0.18H20.54z"/>
	<path id="Path_288" fill="#3DC0F0" d="M17.72,12.1c0-0.33,0.27-0.61,0.61-0.6c0.33,0,0.61,0.27,0.6,0.61c0,0.33-0.27,0.61-0.61,0.6
		c0,0,0,0,0,0C17.99,12.7,17.72,12.43,17.72,12.1z"/>
	<path id="Path_289" fill="#FFFFFF" d="M18.09,12.04h0.18v-0.18c0-0.03,0.03-0.06,0.06-0.06c0.03,0,0.06,0.03,0.06,0.06v0.18h0.18
		c0.03,0,0.06,0.03,0.06,0.06s-0.03,0.06-0.06,0.06l0,0h-0.18v0.18c0,0.03-0.03,0.06-0.06,0.06s-0.06-0.03-0.06-0.06l0,0v-0.18
		h-0.18c-0.03,0-0.06-0.03-0.06-0.06S18.05,12.04,18.09,12.04L18.09,12.04z"/>
	<path id="Path_290" fill="#067A9A" d="M12.16,9.32c0,0.28-0.05,0.56-0.15,0.83c-0.04,0.12-0.1,0.24-0.16,0.35
		c-0.65,1.14-2.1,1.53-3.24,0.88c-0.37-0.21-0.67-0.51-0.88-0.88c-0.02-0.04-0.04-0.07-0.06-0.11C7.08,9.22,7.55,7.79,8.72,7.2
		c1.17-0.59,2.6-0.12,3.18,1.05C12.08,8.58,12.16,8.95,12.16,9.32z"/>
	<circle id="Ellipse_59" fill="#3DC0F0" cx="9.9" cy="9.25" r="0.45"/>
	<path id="Path_291" fill="#F9F9F9" d="M7.67,10.37c0.2-0.22,0.47-0.56,0.72-0.31c0.13,0.12,0.32,0.41,0.51,0.22l1.47-1.47
		c0.11-0.11,0.3-0.11,0.41,0c0,0,0,0,0,0l1.22,1.32c-0.04,0.12-0.1,0.24-0.16,0.35H7.73L7.67,10.37z"/>
	<path id="Path_680" fill="#3DC0F0" d="M11.81,15.84c-0.06,0-0.11,0.05-0.11,0.12c0,0.06,0.05,0.11,0.11,0.11H13
		c0.06,0,0.11-0.05,0.11-0.12c0-0.06-0.05-0.11-0.11-0.11H11.81z"/>
	<path id="Path_680-2" fill="#999999" d="M6.5,14.19c-0.06,0-0.11,0.05-0.11,0.12c0,0.06,0.05,0.11,0.11,0.11h6.6
		c0.06,0,0.11-0.05,0.11-0.12c0-0.06-0.05-0.11-0.11-0.11H6.5z"/>
	<path id="Path_680-3" fill="#999999" d="M6.5,15.02c-0.06,0-0.11,0.05-0.12,0.11c0,0.06,0.05,0.11,0.11,0.12c0,0,0,0,0,0h6.6
		c0.06,0,0.11-0.05,0.11-0.12c0-0.06-0.05-0.11-0.11-0.11H6.5z"/>
	<path id="Path_680-4" fill="#3DC0F0" d="M20.35,15.84c-0.06,0-0.11,0.05-0.11,0.12c0,0.06,0.05,0.11,0.11,0.11h1.19
		c0.06,0,0.11-0.05,0.12-0.11c0-0.06-0.05-0.11-0.11-0.12c0,0,0,0,0,0H20.35z"/>
	<path id="Path_680-5" fill="#999999" d="M15.02,14.19c-0.06,0-0.11,0.05-0.11,0.12c0,0.06,0.05,0.11,0.11,0.11h6.6
		c0.06,0,0.11-0.05,0.11-0.12c0-0.06-0.05-0.11-0.11-0.11H15.02z"/>
	<path id="Path_680-6" fill="#999999" d="M15.02,15.02c-0.06,0-0.11,0.05-0.11,0.12c0,0.06,0.05,0.11,0.11,0.11h6.6
		c0.06,0,0.11-0.05,0.11-0.12c0-0.06-0.05-0.11-0.11-0.11H15.02z"/>
	<path id="Path_292" fill="#F9F9F9" d="M12.12,20.43c-0.1,0.15-0.2,0.29-0.31,0.43l-0.07-0.05c0.11-0.14,0.21-0.28,0.31-0.42
		L12.12,20.43z M11.45,21.25c-0.12,0.13-0.25,0.25-0.38,0.37l-0.06-0.06c0.13-0.12,0.26-0.24,0.38-0.36L11.45,21.25z M10.66,21.96
		c-0.14,0.11-0.29,0.21-0.44,0.3l-0.05-0.07c0.15-0.09,0.29-0.19,0.43-0.3L10.66,21.96z M9.73,22.45l0.04,0.08
		c-0.16,0.08-0.32,0.16-0.48,0.23l-0.03-0.08C9.42,22.6,9.57,22.53,9.73,22.45L9.73,22.45z M8.77,22.85l0.03,0.08
		c-0.17,0.05-0.34,0.1-0.51,0.14L8.26,23C8.43,22.95,8.6,22.91,8.77,22.85z M7.75,23.1l0.01,0.09c-0.17,0.03-0.35,0.05-0.53,0.06
		l-0.01-0.09C7.4,23.14,7.58,23.12,7.75,23.1L7.75,23.1z M1.8,12.9c-0.11,0.14-0.21,0.28-0.31,0.42l-0.07-0.05
		c0.1-0.15,0.2-0.29,0.31-0.43L1.8,12.9z M6.71,23.17l0,0.09c-0.18,0-0.35-0.01-0.53-0.03l0.01-0.09
		C6.36,23.16,6.54,23.17,6.71,23.17L6.71,23.17z M1.23,13.77c-0.08,0.15-0.16,0.31-0.23,0.47L0.92,14.2
		c0.07-0.16,0.15-0.32,0.24-0.47L1.23,13.77z M5.67,23.07l-0.02,0.08c-0.17-0.03-0.35-0.07-0.52-0.12l0.02-0.08
		C5.33,23,5.5,23.04,5.67,23.07L5.67,23.07z M0.8,14.72c-0.06,0.16-0.11,0.33-0.15,0.5L0.57,15.2c0.04-0.17,0.1-0.34,0.15-0.51
		L0.8,14.72z M4.66,22.8l-0.03,0.08c-0.17-0.06-0.33-0.13-0.49-0.2l0.04-0.08C4.33,22.67,4.5,22.74,4.66,22.8L4.66,22.8z
		 M0.54,15.73c-0.03,0.17-0.05,0.35-0.07,0.52l-0.09-0.01c0.02-0.18,0.04-0.35,0.07-0.53L0.54,15.73z M3.71,22.37l-0.04,0.08
		c-0.15-0.09-0.31-0.18-0.45-0.28l0.05-0.07C3.41,22.19,3.56,22.28,3.71,22.37L3.71,22.37z M0.44,16.77c0,0.17,0,0.35,0.02,0.52
		L0.38,17.3c-0.01-0.18-0.02-0.35-0.02-0.53L0.44,16.77z M2.84,21.79l-0.05,0.07c-0.14-0.11-0.27-0.23-0.4-0.35l0.06-0.06
		C2.57,21.57,2.7,21.68,2.84,21.79L2.84,21.79z M0.52,17.82c0.03,0.17,0.06,0.34,0.1,0.51l-0.08,0.02C0.5,18.18,0.46,18,0.44,17.83
		L0.52,17.82z M2.08,21.07l-0.06,0.06C1.9,21,1.78,20.86,1.68,20.72l0.07-0.05C1.85,20.81,1.96,20.95,2.08,21.07L2.08,21.07z
		 M0.77,18.83c0.06,0.16,0.12,0.33,0.19,0.49l-0.08,0.03c-0.07-0.16-0.13-0.33-0.19-0.5L0.77,18.83z M1.45,20.24l-0.07,0.05
		c-0.09-0.15-0.18-0.3-0.27-0.46l0.08-0.04C1.26,19.94,1.35,20.1,1.45,20.24L1.45,20.24z"/>
	<path id="Path_293" fill="#999999" d="M34.92,28.04H11.99c-0.02,0-0.04-0.02-0.04-0.04c0-0.02,0.02-0.04,0.04-0.04c0,0,0,0,0,0
		h22.94c0.02,0,0.04,0.02,0.04,0.04C34.96,28.02,34.95,28.04,34.92,28.04L34.92,28.04z"/>
	<path id="Path_275" fill="#F6B7B9" d="M25.53,15.22l0.59-1.97L25,12.98l-0.41,2.01l-0.7,2.81c-0.26,0.14-0.36,0.46-0.23,0.72
		c0.14,0.26,0.46,0.36,0.72,0.23c0.25-0.13,0.36-0.43,0.24-0.69l0.01,0L25.53,15.22z"/>
	<path id="Path_282" fill="#067A9A" d="M28.22,11.38h-1.86L25,12.04l0.47,5.23l3.49,0.09l0.71-5.19L28.22,11.38z"/>
	<path id="Path_284" fill="#067A9A" d="M25.74,12.28l-0.7-0.23l-1.06,1.74l1.76,0.92V12.28z"/>
</g>
</svg>
